solid OpenSCAD_Model
  facet normal 0 0 1
    outer loop
      vertex -3 2.5 2.5
      vertex -6.5 -3 2.5
      vertex -3 -3 2.5
    endloop
  endfacet
  facet normal 0 0 1
    outer loop
      vertex -3 2.5 2.5
      vertex -10 0 2.5
      vertex -6.5 -3 2.5
    endloop
  endfacet
  facet normal -0 0 1
    outer loop
      vertex -16.1352 2.5 2.5
      vertex -10 0 2.5
      vertex -3 2.5 2.5
    endloop
  endfacet
  facet normal 0 0 1
    outer loop
      vertex -10 0 2.5
      vertex -16.1352 2.5 2.5
      vertex -16.1352 0 2.5
    endloop
  endfacet
  facet normal 0 0 1
    outer loop
      vertex 3 -3 2.5
      vertex 6.5 2.5 2.5
      vertex 3 2.5 2.5
    endloop
  endfacet
  facet normal 0 0 1
    outer loop
      vertex 6.5 2.5 2.5
      vertex 3 -3 2.5
      vertex 6.5 -9 2.5
    endloop
  endfacet
  facet normal 0 0 1
    outer loop
      vertex 2.90575 -3.24607 2.5
      vertex 3 -3 2.5
      vertex 2.95269 -3 2.5
    endloop
  endfacet
  facet normal 0 0 1
    outer loop
      vertex 3 -3 2.5
      vertex 2.90575 -3.24607 2.5
      vertex 6.5 -9 2.5
    endloop
  endfacet
  facet normal -0 0 1
    outer loop
      vertex 2.78933 -3.60437 2.5
      vertex 6.5 -9 2.5
      vertex 2.90575 -3.24607 2.5
    endloop
  endfacet
  facet normal -0 0 1
    outer loop
      vertex 2.62892 -3.94526 2.5
      vertex 6.5 -9 2.5
      vertex 2.78933 -3.60437 2.5
    endloop
  endfacet
  facet normal -0 0 1
    outer loop
      vertex 2.42705 -4.26336 2.5
      vertex 6.5 -9 2.5
      vertex 2.62892 -3.94526 2.5
    endloop
  endfacet
  facet normal -0 0 1
    outer loop
      vertex 2.18691 -4.55364 2.5
      vertex 6.5 -9 2.5
      vertex 2.42705 -4.26336 2.5
    endloop
  endfacet
  facet normal -0 0 1
    outer loop
      vertex 1.91227 -4.81154 2.5
      vertex 6.5 -9 2.5
      vertex 2.18691 -4.55364 2.5
    endloop
  endfacet
  facet normal -0 0 1
    outer loop
      vertex 1.60748 -5.03298 2.5
      vertex 6.5 -9 2.5
      vertex 1.91227 -4.81154 2.5
    endloop
  endfacet
  facet normal -0 0 1
    outer loop
      vertex 1.27734 -5.21448 2.5
      vertex 6.5 -9 2.5
      vertex 1.60748 -5.03298 2.5
    endloop
  endfacet
  facet normal -0 0 1
    outer loop
      vertex 0.927051 -5.35317 2.5
      vertex 6.5 -9 2.5
      vertex 1.27734 -5.21448 2.5
    endloop
  endfacet
  facet normal -0 0 1
    outer loop
      vertex 0.562143 -5.44686 2.5
      vertex 6.5 -9 2.5
      vertex 0.927051 -5.35317 2.5
    endloop
  endfacet
  facet normal -0 0 1
    outer loop
      vertex 0.188371 -5.49408 2.5
      vertex 6.5 -9 2.5
      vertex 0.562143 -5.44686 2.5
    endloop
  endfacet
  facet normal -0 0 1
    outer loop
      vertex -0.188371 -5.49408 2.5
      vertex 6.5 -9 2.5
      vertex 0.188371 -5.49408 2.5
    endloop
  endfacet
  facet normal 0 0 1
    outer loop
      vertex -6.5 -9 2.5
      vertex -0.188371 -5.49408 2.5
      vertex -0.562143 -5.44686 2.5
    endloop
  endfacet
  facet normal 0 0 1
    outer loop
      vertex -6.5 -9 2.5
      vertex -0.562143 -5.44686 2.5
      vertex -0.927051 -5.35317 2.5
    endloop
  endfacet
  facet normal 0 0 1
    outer loop
      vertex -6.5 -9 2.5
      vertex -0.927051 -5.35317 2.5
      vertex -1.27734 -5.21448 2.5
    endloop
  endfacet
  facet normal -0 0 1
    outer loop
      vertex -3 -3 2.5
      vertex -2.90575 -3.24607 2.5
      vertex -2.95269 -3 2.5
    endloop
  endfacet
  facet normal -0 0 1
    outer loop
      vertex -6.5 -3 2.5
      vertex -2.90575 -3.24607 2.5
      vertex -3 -3 2.5
    endloop
  endfacet
  facet normal 0 0 1
    outer loop
      vertex -2.90575 -3.24607 2.5
      vertex -6.5 -3 2.5
      vertex -2.78933 -3.60437 2.5
    endloop
  endfacet
  facet normal 0 0 1
    outer loop
      vertex -6.5 -3 2.5
      vertex -2.62892 -3.94526 2.5
      vertex -2.78933 -3.60437 2.5
    endloop
  endfacet
  facet normal 0 0 1
    outer loop
      vertex -6.5 -3 2.5
      vertex -2.42705 -4.26336 2.5
      vertex -2.62892 -3.94526 2.5
    endloop
  endfacet
  facet normal 0 0 1
    outer loop
      vertex -6.5 -9 2.5
      vertex -2.42705 -4.26336 2.5
      vertex -6.5 -3 2.5
    endloop
  endfacet
  facet normal 0 0 1
    outer loop
      vertex -2.42705 -4.26336 2.5
      vertex -6.5 -9 2.5
      vertex -2.18691 -4.55364 2.5
    endloop
  endfacet
  facet normal 0 0 1
    outer loop
      vertex -2.18691 -4.55364 2.5
      vertex -6.5 -9 2.5
      vertex -1.91227 -4.81154 2.5
    endloop
  endfacet
  facet normal 0 0 1
    outer loop
      vertex -1.91227 -4.81154 2.5
      vertex -6.5 -9 2.5
      vertex -1.60748 -5.03298 2.5
    endloop
  endfacet
  facet normal 0 0 1
    outer loop
      vertex -1.60748 -5.03298 2.5
      vertex -6.5 -9 2.5
      vertex -1.27734 -5.21448 2.5
    endloop
  endfacet
  facet normal 0 0 1
    outer loop
      vertex -0.188371 -5.49408 2.5
      vertex -6.5 -9 2.5
      vertex 6.5 -9 2.5
    endloop
  endfacet
  facet normal 0 0 1
    outer loop
      vertex -6.5 -3 2.5
      vertex -10 0 2.5
      vertex -10 -3 2.5
    endloop
  endfacet
  facet normal 1 -0 0
    outer loop
      vertex 6.5 -9 2.5
      vertex 6.5 2.5 -2.5
      vertex 6.5 2.5 2.5
    endloop
  endfacet
  facet normal 1 0 0
    outer loop
      vertex 6.5 2.5 -2.5
      vertex 6.5 -9 2.5
      vertex 6.5 -9 -2.5
    endloop
  endfacet
  facet normal 0 0 -1
    outer loop
      vertex 6.5 -9 -2.5
      vertex 3 -3 -2.5
      vertex 6.5 2.5 -2.5
    endloop
  endfacet
  facet normal 0 0 -1
    outer loop
      vertex 2.90575 -3.24607 -2.5
      vertex 3 -3 -2.5
      vertex 6.5 -9 -2.5
    endloop
  endfacet
  facet normal -0 0 -1
    outer loop
      vertex 3 -3 -2.5
      vertex 2.90575 -3.24607 -2.5
      vertex 2.95269 -3 -2.5
    endloop
  endfacet
  facet normal 0 0 -1
    outer loop
      vertex 6.5 -9 -2.5
      vertex 2.78933 -3.60437 -2.5
      vertex 2.90575 -3.24607 -2.5
    endloop
  endfacet
  facet normal 0 0 -1
    outer loop
      vertex 6.5 -9 -2.5
      vertex 2.62892 -3.94526 -2.5
      vertex 2.78933 -3.60437 -2.5
    endloop
  endfacet
  facet normal 0 0 -1
    outer loop
      vertex 6.5 -9 -2.5
      vertex 2.42705 -4.26336 -2.5
      vertex 2.62892 -3.94526 -2.5
    endloop
  endfacet
  facet normal 0 0 -1
    outer loop
      vertex 6.5 -9 -2.5
      vertex 2.18691 -4.55364 -2.5
      vertex 2.42705 -4.26336 -2.5
    endloop
  endfacet
  facet normal 0 0 -1
    outer loop
      vertex 6.5 -9 -2.5
      vertex 1.91227 -4.81154 -2.5
      vertex 2.18691 -4.55364 -2.5
    endloop
  endfacet
  facet normal 0 0 -1
    outer loop
      vertex 6.5 -9 -2.5
      vertex 1.60748 -5.03298 -2.5
      vertex 1.91227 -4.81154 -2.5
    endloop
  endfacet
  facet normal 0 0 -1
    outer loop
      vertex 6.5 -9 -2.5
      vertex 1.27734 -5.21448 -2.5
      vertex 1.60748 -5.03298 -2.5
    endloop
  endfacet
  facet normal 0 0 -1
    outer loop
      vertex 6.5 -9 -2.5
      vertex 0.927051 -5.35317 -2.5
      vertex 1.27734 -5.21448 -2.5
    endloop
  endfacet
  facet normal 0 0 -1
    outer loop
      vertex 6.5 -9 -2.5
      vertex 0.562143 -5.44686 -2.5
      vertex 0.927051 -5.35317 -2.5
    endloop
  endfacet
  facet normal 0 0 -1
    outer loop
      vertex 6.5 -9 -2.5
      vertex 0.188371 -5.49408 -2.5
      vertex 0.562143 -5.44686 -2.5
    endloop
  endfacet
  facet normal 0 0 -1
    outer loop
      vertex 6.5 -9 -2.5
      vertex -0.188371 -5.49408 -2.5
      vertex 0.188371 -5.49408 -2.5
    endloop
  endfacet
  facet normal 0 0 -1
    outer loop
      vertex -6.5 -9 -2.5
      vertex -0.188371 -5.49408 -2.5
      vertex 6.5 -9 -2.5
    endloop
  endfacet
  facet normal -0 0 -1
    outer loop
      vertex -0.188371 -5.49408 -2.5
      vertex -6.5 -9 -2.5
      vertex -0.562143 -5.44686 -2.5
    endloop
  endfacet
  facet normal -0 0 -1
    outer loop
      vertex -0.562143 -5.44686 -2.5
      vertex -6.5 -9 -2.5
      vertex -0.927051 -5.35317 -2.5
    endloop
  endfacet
  facet normal 0 0 -1
    outer loop
      vertex -2.90575 -3.24607 -2.5
      vertex -3 -3 -2.5
      vertex -2.95269 -3 -2.5
    endloop
  endfacet
  facet normal 0 0 -1
    outer loop
      vertex -6.5 -3 -2.5
      vertex -2.90575 -3.24607 -2.5
      vertex -2.78933 -3.60437 -2.5
    endloop
  endfacet
  facet normal -0 0 -1
    outer loop
      vertex -0.927051 -5.35317 -2.5
      vertex -6.5 -9 -2.5
      vertex -1.27734 -5.21448 -2.5
    endloop
  endfacet
  facet normal 0 0 -1
    outer loop
      vertex -6.5 -9 -2.5
      vertex -1.60748 -5.03298 -2.5
      vertex -1.27734 -5.21448 -2.5
    endloop
  endfacet
  facet normal 0 0 -1
    outer loop
      vertex -6.5 -9 -2.5
      vertex -1.91227 -4.81154 -2.5
      vertex -1.60748 -5.03298 -2.5
    endloop
  endfacet
  facet normal 0 0 -1
    outer loop
      vertex -6.5 -9 -2.5
      vertex -2.18691 -4.55364 -2.5
      vertex -1.91227 -4.81154 -2.5
    endloop
  endfacet
  facet normal 0 0 -1
    outer loop
      vertex -6.5 -9 -2.5
      vertex -2.42705 -4.26336 -2.5
      vertex -2.18691 -4.55364 -2.5
    endloop
  endfacet
  facet normal 0 0 -1
    outer loop
      vertex -6.5 -3 -2.5
      vertex -2.42705 -4.26336 -2.5
      vertex -6.5 -9 -2.5
    endloop
  endfacet
  facet normal 0 0 -1
    outer loop
      vertex -2.42705 -4.26336 -2.5
      vertex -6.5 -3 -2.5
      vertex -2.62892 -3.94526 -2.5
    endloop
  endfacet
  facet normal 0 0 -1
    outer loop
      vertex -2.62892 -3.94526 -2.5
      vertex -6.5 -3 -2.5
      vertex -2.78933 -3.60437 -2.5
    endloop
  endfacet
  facet normal 0 0 -1
    outer loop
      vertex -2.90575 -3.24607 -2.5
      vertex -6.5 -3 -2.5
      vertex -3 -3 -2.5
    endloop
  endfacet
  facet normal 0 0 -1
    outer loop
      vertex -3 -3 -2.5
      vertex -6.5 -3 -2.5
      vertex -3 2.5 -2.5
    endloop
  endfacet
  facet normal 0 0 -1
    outer loop
      vertex -10 0 -2.5
      vertex -6.5 -3 -2.5
      vertex -10 -3 -2.5
    endloop
  endfacet
  facet normal 0 0 -1
    outer loop
      vertex -6.5 -3 -2.5
      vertex -10 0 -2.5
      vertex -3 2.5 -2.5
    endloop
  endfacet
  facet normal 0 0 -1
    outer loop
      vertex -24 2.5 -2.5
      vertex -10 0 -2.5
      vertex -24 0 -2.5
    endloop
  endfacet
  facet normal 0 0 -1
    outer loop
      vertex -10 0 -2.5
      vertex -24 2.5 -2.5
      vertex -3 2.5 -2.5
    endloop
  endfacet
  facet normal -0 0 -1
    outer loop
      vertex 6.5 2.5 -2.5
      vertex 3 -3 -2.5
      vertex 3 2.5 -2.5
    endloop
  endfacet
  facet normal 0 -1 0
    outer loop
      vertex -6.5 -9 -2.5
      vertex 6.5 -9 2.5
      vertex -6.5 -9 2.5
    endloop
  endfacet
  facet normal 0 -1 -0
    outer loop
      vertex 6.5 -9 2.5
      vertex -6.5 -9 -2.5
      vertex 6.5 -9 -2.5
    endloop
  endfacet
  facet normal -1 0 0
    outer loop
      vertex -6.5 -9 -2.5
      vertex -6.5 -3 2.5
      vertex -6.5 -3 -2.5
    endloop
  endfacet
  facet normal -1 -0 0
    outer loop
      vertex -6.5 -3 2.5
      vertex -6.5 -9 -2.5
      vertex -6.5 -9 2.5
    endloop
  endfacet
  facet normal -0.368126 0.929776 0
    outer loop
      vertex 1.27734 -5.21448 -2.5
      vertex 0.927051 -5.35317 2.5
      vertex 1.27734 -5.21448 2.5
    endloop
  endfacet
  facet normal -0.368126 0.929776 0
    outer loop
      vertex 0.927051 -5.35317 2.5
      vertex 1.27734 -5.21448 -2.5
      vertex 0.927051 -5.35317 -2.5
    endloop
  endfacet
  facet normal 0.125333 0.992115 -0
    outer loop
      vertex -0.188371 -5.49408 -2.5
      vertex -0.562143 -5.44686 2.5
      vertex -0.188371 -5.49408 2.5
    endloop
  endfacet
  facet normal 0.125333 0.992115 0
    outer loop
      vertex -0.562143 -5.44686 2.5
      vertex -0.188371 -5.49408 -2.5
      vertex -0.562143 -5.44686 -2.5
    endloop
  endfacet
  facet normal 0.904828 0.425778 0
    outer loop
      vertex -2.62892 -3.94526 2.5
      vertex -2.78933 -3.60437 -2.5
      vertex -2.78933 -3.60437 2.5
    endloop
  endfacet
  facet normal 0.904828 0.425778 0
    outer loop
      vertex -2.78933 -3.60437 -2.5
      vertex -2.62892 -3.94526 2.5
      vertex -2.62892 -3.94526 -2.5
    endloop
  endfacet
  facet normal 0.368126 0.929776 -0
    outer loop
      vertex -0.927051 -5.35317 -2.5
      vertex -1.27734 -5.21448 2.5
      vertex -0.927051 -5.35317 2.5
    endloop
  endfacet
  facet normal 0.368126 0.929776 0
    outer loop
      vertex -1.27734 -5.21448 2.5
      vertex -0.927051 -5.35317 -2.5
      vertex -1.27734 -5.21448 -2.5
    endloop
  endfacet
  facet normal 0.587784 0.809018 -0
    outer loop
      vertex -1.60748 -5.03298 -2.5
      vertex -1.91227 -4.81154 2.5
      vertex -1.60748 -5.03298 2.5
    endloop
  endfacet
  facet normal 0.587784 0.809018 0
    outer loop
      vertex -1.91227 -4.81154 2.5
      vertex -1.60748 -5.03298 -2.5
      vertex -1.91227 -4.81154 -2.5
    endloop
  endfacet
  facet normal 0.248689 0.968583 -0
    outer loop
      vertex -0.562143 -5.44686 -2.5
      vertex -0.927051 -5.35317 2.5
      vertex -0.562143 -5.44686 2.5
    endloop
  endfacet
  facet normal 0.248689 0.968583 0
    outer loop
      vertex -0.927051 -5.35317 2.5
      vertex -0.562143 -5.44686 -2.5
      vertex -0.927051 -5.35317 -2.5
    endloop
  endfacet
  facet normal 0.684548 0.728968 -0
    outer loop
      vertex -1.91227 -4.81154 -2.5
      vertex -2.18691 -4.55364 2.5
      vertex -1.91227 -4.81154 2.5
    endloop
  endfacet
  facet normal 0.684548 0.728968 0
    outer loop
      vertex -2.18691 -4.55364 2.5
      vertex -1.91227 -4.81154 -2.5
      vertex -2.18691 -4.55364 -2.5
    endloop
  endfacet
  facet normal 0.982288 0.187379 0
    outer loop
      vertex -2.90575 -3.24607 2.5
      vertex -2.95269 -3 -2.5
      vertex -2.95269 -3 2.5
    endloop
  endfacet
  facet normal 0.982288 0.187379 0
    outer loop
      vertex -2.95269 -3 -2.5
      vertex -2.90575 -3.24607 2.5
      vertex -2.90575 -3.24607 -2.5
    endloop
  endfacet
  facet normal -0.248689 0.968583 0
    outer loop
      vertex 0.927051 -5.35317 -2.5
      vertex 0.562143 -5.44686 2.5
      vertex 0.927051 -5.35317 2.5
    endloop
  endfacet
  facet normal -0.248689 0.968583 0
    outer loop
      vertex 0.562143 -5.44686 2.5
      vertex 0.927051 -5.35317 -2.5
      vertex 0.562143 -5.44686 -2.5
    endloop
  endfacet
  facet normal -0.684548 0.728968 0
    outer loop
      vertex 2.18691 -4.55364 -2.5
      vertex 1.91227 -4.81154 2.5
      vertex 2.18691 -4.55364 2.5
    endloop
  endfacet
  facet normal -0.684548 0.728968 0
    outer loop
      vertex 1.91227 -4.81154 2.5
      vertex 2.18691 -4.55364 -2.5
      vertex 1.91227 -4.81154 -2.5
    endloop
  endfacet
  facet normal -0.951056 0.309019 0
    outer loop
      vertex 2.78933 -3.60437 -2.5
      vertex 2.90575 -3.24607 2.5
      vertex 2.90575 -3.24607 -2.5
    endloop
  endfacet
  facet normal -0.951056 0.309019 0
    outer loop
      vertex 2.90575 -3.24607 2.5
      vertex 2.78933 -3.60437 -2.5
      vertex 2.78933 -3.60437 2.5
    endloop
  endfacet
  facet normal 0 1 -0
    outer loop
      vertex 0.188371 -5.49408 -2.5
      vertex -0.188371 -5.49408 2.5
      vertex 0.188371 -5.49408 2.5
    endloop
  endfacet
  facet normal 0 1 0
    outer loop
      vertex -0.188371 -5.49408 2.5
      vertex 0.188371 -5.49408 -2.5
      vertex -0.188371 -5.49408 -2.5
    endloop
  endfacet
  facet normal 0.481754 0.876307 -0
    outer loop
      vertex -1.27734 -5.21448 -2.5
      vertex -1.60748 -5.03298 2.5
      vertex -1.27734 -5.21448 2.5
    endloop
  endfacet
  facet normal 0.481754 0.876307 0
    outer loop
      vertex -1.60748 -5.03298 2.5
      vertex -1.27734 -5.21448 -2.5
      vertex -1.60748 -5.03298 -2.5
    endloop
  endfacet
  facet normal 0.844328 0.535827 0
    outer loop
      vertex -2.42705 -4.26336 2.5
      vertex -2.62892 -3.94526 -2.5
      vertex -2.62892 -3.94526 2.5
    endloop
  endfacet
  facet normal 0.844328 0.535827 0
    outer loop
      vertex -2.62892 -3.94526 -2.5
      vertex -2.42705 -4.26336 2.5
      vertex -2.42705 -4.26336 -2.5
    endloop
  endfacet
  facet normal 0.951056 0.309019 0
    outer loop
      vertex -2.78933 -3.60437 2.5
      vertex -2.90575 -3.24607 -2.5
      vertex -2.90575 -3.24607 2.5
    endloop
  endfacet
  facet normal 0.951056 0.309019 0
    outer loop
      vertex -2.90575 -3.24607 -2.5
      vertex -2.78933 -3.60437 2.5
      vertex -2.78933 -3.60437 -2.5
    endloop
  endfacet
  facet normal -0.125333 0.992115 0
    outer loop
      vertex 0.562143 -5.44686 -2.5
      vertex 0.188371 -5.49408 2.5
      vertex 0.562143 -5.44686 2.5
    endloop
  endfacet
  facet normal -0.125333 0.992115 0
    outer loop
      vertex 0.188371 -5.49408 2.5
      vertex 0.562143 -5.44686 -2.5
      vertex 0.188371 -5.49408 -2.5
    endloop
  endfacet
  facet normal -0.904828 0.425778 0
    outer loop
      vertex 2.62892 -3.94526 -2.5
      vertex 2.78933 -3.60437 2.5
      vertex 2.78933 -3.60437 -2.5
    endloop
  endfacet
  facet normal -0.904828 0.425778 0
    outer loop
      vertex 2.78933 -3.60437 2.5
      vertex 2.62892 -3.94526 -2.5
      vertex 2.62892 -3.94526 2.5
    endloop
  endfacet
  facet normal 0.770513 0.637424 0
    outer loop
      vertex -2.18691 -4.55364 2.5
      vertex -2.42705 -4.26336 -2.5
      vertex -2.42705 -4.26336 2.5
    endloop
  endfacet
  facet normal 0.770513 0.637424 0
    outer loop
      vertex -2.42705 -4.26336 -2.5
      vertex -2.18691 -4.55364 2.5
      vertex -2.18691 -4.55364 -2.5
    endloop
  endfacet
  facet normal -0.844328 0.535827 0
    outer loop
      vertex 2.42705 -4.26336 -2.5
      vertex 2.62892 -3.94526 2.5
      vertex 2.62892 -3.94526 -2.5
    endloop
  endfacet
  facet normal -0.844328 0.535827 0
    outer loop
      vertex 2.62892 -3.94526 2.5
      vertex 2.42705 -4.26336 -2.5
      vertex 2.42705 -4.26336 2.5
    endloop
  endfacet
  facet normal -0.770513 0.637424 0
    outer loop
      vertex 2.18691 -4.55364 -2.5
      vertex 2.42705 -4.26336 2.5
      vertex 2.42705 -4.26336 -2.5
    endloop
  endfacet
  facet normal -0.770513 0.637424 0
    outer loop
      vertex 2.42705 -4.26336 2.5
      vertex 2.18691 -4.55364 -2.5
      vertex 2.18691 -4.55364 2.5
    endloop
  endfacet
  facet normal -0.587784 0.809018 0
    outer loop
      vertex 1.91227 -4.81154 -2.5
      vertex 1.60748 -5.03298 2.5
      vertex 1.91227 -4.81154 2.5
    endloop
  endfacet
  facet normal -0.587784 0.809018 0
    outer loop
      vertex 1.60748 -5.03298 2.5
      vertex 1.91227 -4.81154 -2.5
      vertex 1.60748 -5.03298 -2.5
    endloop
  endfacet
  facet normal -0.481754 0.876307 0
    outer loop
      vertex 1.60748 -5.03298 -2.5
      vertex 1.27734 -5.21448 2.5
      vertex 1.60748 -5.03298 2.5
    endloop
  endfacet
  facet normal -0.481754 0.876307 0
    outer loop
      vertex 1.27734 -5.21448 2.5
      vertex 1.60748 -5.03298 -2.5
      vertex 1.27734 -5.21448 -2.5
    endloop
  endfacet
  facet normal -0.982288 0.187379 0
    outer loop
      vertex 2.90575 -3.24607 -2.5
      vertex 2.95269 -3 2.5
      vertex 2.95269 -3 -2.5
    endloop
  endfacet
  facet normal -0.982288 0.187379 0
    outer loop
      vertex 2.95269 -3 2.5
      vertex 2.90575 -3.24607 -2.5
      vertex 2.90575 -3.24607 2.5
    endloop
  endfacet
  facet normal -1 0 0
    outer loop
      vertex 3 -3 -2.5
      vertex 3 2.5 2.5
      vertex 3 2.5 -2.5
    endloop
  endfacet
  facet normal -1 -0 0
    outer loop
      vertex 3 2.5 2.5
      vertex 3 -3 -2.5
      vertex 3 -3 2.5
    endloop
  endfacet
  facet normal 1 -0 0
    outer loop
      vertex -3 -3 2.5
      vertex -3 2.5 -2.5
      vertex -3 2.5 2.5
    endloop
  endfacet
  facet normal 1 0 0
    outer loop
      vertex -3 2.5 -2.5
      vertex -3 -3 2.5
      vertex -3 -3 -2.5
    endloop
  endfacet
  facet normal 0 1 -0
    outer loop
      vertex -2.95269 -3 -2.5
      vertex -3 -3 2.5
      vertex -2.95269 -3 2.5
    endloop
  endfacet
  facet normal 0 1 0
    outer loop
      vertex -3 -3 2.5
      vertex -2.95269 -3 -2.5
      vertex -3 -3 -2.5
    endloop
  endfacet
  facet normal 0 1 -0
    outer loop
      vertex 3 -3 -2.5
      vertex 2.95269 -3 2.5
      vertex 3 -3 2.5
    endloop
  endfacet
  facet normal 0 1 0
    outer loop
      vertex 2.95269 -3 2.5
      vertex 3 -3 -2.5
      vertex 2.95269 -3 -2.5
    endloop
  endfacet
  facet normal 0 0 1
    outer loop
      vertex -23.8648 2.5 2.5
      vertex -24 2.5 2.5
      vertex -23.8648 9.53674e-07 2.5
    endloop
  endfacet
  facet normal 0 0 1
    outer loop
      vertex -23.3726 7.56569e-07 2.5
      vertex -21.728 0 2.5
      vertex -21.728 2.33312e-07 2.5
    endloop
  endfacet
  facet normal 0 0 1
    outer loop
      vertex -23.6939 8.77231e-07 2.5
      vertex -21.728 0 2.5
      vertex -23.3726 7.56569e-07 2.5
    endloop
  endfacet
  facet normal 0 0 1
    outer loop
      vertex -23.6939 8.77231e-07 2.5
      vertex -24 0 2.5
      vertex -21.728 0 2.5
    endloop
  endfacet
  facet normal 0 0 1
    outer loop
      vertex -23.8648 9.53674e-07 2.5
      vertex -24 0 2.5
      vertex -23.6939 8.77231e-07 2.5
    endloop
  endfacet
  facet normal 0 0 1
    outer loop
      vertex -24 0 2.5
      vertex -23.8648 9.53674e-07 2.5
      vertex -24 2.5 2.5
    endloop
  endfacet
  facet normal -1 0 0
    outer loop
      vertex -24 0 -2.5
      vertex -24 2.5 2.5
      vertex -24 2.5 -2.5
    endloop
  endfacet
  facet normal -1 -0 0
    outer loop
      vertex -24 2.5 2.5
      vertex -24 0 -2.5
      vertex -24 0 2.5
    endloop
  endfacet
  facet normal 0 -1 0
    outer loop
      vertex -24 0 2.5
      vertex -21.8097 0 2.35156
      vertex -21.728 0 2.5
    endloop
  endfacet
  facet normal 0 -1 0
    outer loop
      vertex -24 0 2.5
      vertex -21.9021 0 2.11803
      vertex -21.8097 0 2.35156
    endloop
  endfacet
  facet normal 0 -1 0
    outer loop
      vertex -24 0 2.5
      vertex -21.9646 0 1.87476
      vertex -21.9021 0 2.11803
    endloop
  endfacet
  facet normal 0 -1 0
    outer loop
      vertex -24 0 2.5
      vertex -21.9961 0 1.62558
      vertex -21.9646 0 1.87476
    endloop
  endfacet
  facet normal 0 -1 0
    outer loop
      vertex -24 0 2.5
      vertex -21.9961 0 1.37442
      vertex -21.9961 0 1.62558
    endloop
  endfacet
  facet normal 0 -1 0
    outer loop
      vertex -24 0 2.5
      vertex -21.9646 0 1.12524
      vertex -21.9961 0 1.37442
    endloop
  endfacet
  facet normal 0 -1 0
    outer loop
      vertex -24 0 2.5
      vertex -21.9021 0 0.881966
      vertex -21.9646 0 1.12524
    endloop
  endfacet
  facet normal 0 -1 0
    outer loop
      vertex -24 0 -2.5
      vertex -21.9021 0 0.881966
      vertex -24 0 2.5
    endloop
  endfacet
  facet normal 0 -1 -0
    outer loop
      vertex -21.9021 0 0.881966
      vertex -24 0 -2.5
      vertex -21.8097 0 0.648441
    endloop
  endfacet
  facet normal 0 -1 -0
    outer loop
      vertex -21.8097 0 0.648441
      vertex -24 0 -2.5
      vertex -21.6887 0 0.428346
    endloop
  endfacet
  facet normal 0 -1 -0
    outer loop
      vertex -21.6887 0 0.428346
      vertex -24 0 -2.5
      vertex -21.541 0 0.225152
    endloop
  endfacet
  facet normal 0 -1 0
    outer loop
      vertex -24 0 -2.5
      vertex -20 0 -0.499999
      vertex -20.2507 0 -0.484229
    endloop
  endfacet
  facet normal 0 -1 -0
    outer loop
      vertex -20 0 -0.499999
      vertex -24 0 -2.5
      vertex -20 0 -0.5
    endloop
  endfacet
  facet normal 0 -1 -0
    outer loop
      vertex -20.4974 0 -0.437166
      vertex -24 0 -2.5
      vertex -20.2507 0 -0.484229
    endloop
  endfacet
  facet normal 0 -1 -0
    outer loop
      vertex -20.7362 0 -0.359552
      vertex -24 0 -2.5
      vertex -20.4974 0 -0.437166
    endloop
  endfacet
  facet normal 0 -1 -0
    outer loop
      vertex -20.9635 0 -0.252613
      vertex -24 0 -2.5
      vertex -20.7362 0 -0.359552
    endloop
  endfacet
  facet normal 0 -1 -0
    outer loop
      vertex -21.1756 0 -0.118033
      vertex -24 0 -2.5
      vertex -20.9635 0 -0.252613
    endloop
  endfacet
  facet normal 0 -1 -0
    outer loop
      vertex -21.3691 0 0.0420618
      vertex -24 0 -2.5
      vertex -21.1756 0 -0.118033
    endloop
  endfacet
  facet normal 0 -1 -0
    outer loop
      vertex -21.541 0 0.225152
      vertex -24 0 -2.5
      vertex -21.3691 0 0.0420618
    endloop
  endfacet
  facet normal 0 -1 0
    outer loop
      vertex -20 0 3.5
      vertex -20 0 5.5
      vertex -20.5013 0 5.46846
    endloop
  endfacet
  facet normal 0 -1 0
    outer loop
      vertex -20.2507 0 3.48423
      vertex -20.5013 0 5.46846
      vertex -20.9948 0 5.37433
    endloop
  endfacet
  facet normal 0 -1 0
    outer loop
      vertex -19.7493 0 3.48423
      vertex -19.4987 0 5.46846
      vertex -20 0 3.5
    endloop
  endfacet
  facet normal 0 -1 -0
    outer loop
      vertex -19.4987 0 5.46846
      vertex -19.7493 0 3.48423
      vertex -19.0052 0 5.37433
    endloop
  endfacet
  facet normal 0 -1 -0
    outer loop
      vertex -19.0052 0 5.37433
      vertex -19.5026 0 3.43717
      vertex -18.5275 0 5.21911
    endloop
  endfacet
  facet normal 0 -1 -0
    outer loop
      vertex -18.5275 0 5.21911
      vertex -19.2638 0 3.35955
      vertex -18.073 0 5.00523
    endloop
  endfacet
  facet normal 0 -1 0
    outer loop
      vertex -19.0365 0 3.25261
      vertex -18.073 0 5.00523
      vertex -19.2638 0 3.35955
    endloop
  endfacet
  facet normal 0 -1 0
    outer loop
      vertex -18.8244 0 3.11803
      vertex -17.6489 0 4.73607
      vertex -19.0365 0 3.25261
    endloop
  endfacet
  facet normal 0 -1 0
    outer loop
      vertex -20 0 5.5
      vertex -20 0 3.5
      vertex -19.4987 0 5.46846
    endloop
  endfacet
  facet normal 0 -1 0
    outer loop
      vertex -20.5013 0 5.46846
      vertex -20.2507 0 3.48423
      vertex -20 0 3.5
    endloop
  endfacet
  facet normal 0 -1 0
    outer loop
      vertex -20.9948 0 5.37433
      vertex -20.4974 0 3.43717
      vertex -20.2507 0 3.48423
    endloop
  endfacet
  facet normal 0 -1 0
    outer loop
      vertex -20.9948 0 5.37433
      vertex -20.7362 0 3.35955
      vertex -20.4974 0 3.43717
    endloop
  endfacet
  facet normal 0 -1 0
    outer loop
      vertex -20.9948 0 5.37433
      vertex -20.9635 0 3.25261
      vertex -20.7362 0 3.35955
    endloop
  endfacet
  facet normal -0 -1 0
    outer loop
      vertex -20.9635 0 3.25261
      vertex -20.9948 0 5.37433
      vertex -20.9948 0 3.23278
    endloop
  endfacet
  facet normal 0 -1 0
    outer loop
      vertex -19.5026 0 3.43717
      vertex -19.0052 0 5.37433
      vertex -19.7493 0 3.48423
    endloop
  endfacet
  facet normal 0 -1 0
    outer loop
      vertex -19.2638 0 3.35955
      vertex -18.5275 0 5.21911
      vertex -19.5026 0 3.43717
    endloop
  endfacet
  facet normal 0 -1 -0
    outer loop
      vertex -18.073 0 5.00523
      vertex -19.0365 0 3.25261
      vertex -17.6489 0 4.73607
    endloop
  endfacet
  facet normal 0 -1 -0
    outer loop
      vertex -17.6489 0 4.73607
      vertex -18.8244 0 3.11803
      vertex -17.2618 0 4.41587
    endloop
  endfacet
  facet normal 0 -1 0
    outer loop
      vertex -18.6309 0 2.95794
      vertex -17.2618 0 4.41587
      vertex -18.8244 0 3.11803
    endloop
  endfacet
  facet normal 0 -1 -0
    outer loop
      vertex -17.2618 0 4.41587
      vertex -18.6309 0 2.95794
      vertex -16.9179 0 4.0497
    endloop
  endfacet
  facet normal 0 -1 0
    outer loop
      vertex -18.459 0 2.77485
      vertex -16.9179 0 4.0497
      vertex -18.6309 0 2.95794
    endloop
  endfacet
  facet normal 0 -1 -0
    outer loop
      vertex -16.9179 0 4.0497
      vertex -18.459 0 2.77485
      vertex -16.6227 0 3.64331
    endloop
  endfacet
  facet normal 0 -1 0
    outer loop
      vertex -18.3113 0 2.57165
      vertex -16.6227 0 3.64331
      vertex -18.459 0 2.77485
    endloop
  endfacet
  facet normal 0 -1 -0
    outer loop
      vertex -16.6227 0 3.64331
      vertex -18.3113 0 2.57165
      vertex -16.3807 0 3.20312
    endloop
  endfacet
  facet normal 0 -1 0
    outer loop
      vertex -18.1903 0 2.35156
      vertex -16.3807 0 3.20312
      vertex -18.3113 0 2.57165
    endloop
  endfacet
  facet normal 0 -1 -0
    outer loop
      vertex -16.3807 0 3.20312
      vertex -18.1903 0 2.35156
      vertex -16.1958 0 2.73607
    endloop
  endfacet
  facet normal 0 -1 0
    outer loop
      vertex -18.0979 0 2.11803
      vertex -16.1958 0 2.73607
      vertex -18.1903 0 2.35156
    endloop
  endfacet
  facet normal 0 -1 -0
    outer loop
      vertex -16.1958 0 2.73607
      vertex -18.0979 0 2.11803
      vertex -16.1352 0 2.5
    endloop
  endfacet
  facet normal 0 -1 0
    outer loop
      vertex -18.0354 0 1.87476
      vertex -16.1352 0 2.5
      vertex -18.0979 0 2.11803
    endloop
  endfacet
  facet normal 0 -1 0
    outer loop
      vertex -18.0039 0 1.62558
      vertex -16.1352 0 2.5
      vertex -18.0354 0 1.87476
    endloop
  endfacet
  facet normal 0 -1 0
    outer loop
      vertex -18.0039 0 1.37442
      vertex -16.1352 0 2.5
      vertex -18.0039 0 1.62558
    endloop
  endfacet
  facet normal 0 -1 0
    outer loop
      vertex -18.0354 0 1.12524
      vertex -16.1352 0 2.5
      vertex -18.0039 0 1.37442
    endloop
  endfacet
  facet normal 0 -1 0
    outer loop
      vertex -18.0979 0 0.881966
      vertex -16.1352 0 2.5
      vertex -18.0354 0 1.12524
    endloop
  endfacet
  facet normal 0 -1 0
    outer loop
      vertex -18.1903 0 0.648441
      vertex -16.1352 0 2.5
      vertex -18.0979 0 0.881966
    endloop
  endfacet
  facet normal 0 -1 -0
    outer loop
      vertex -16.1352 0 2.5
      vertex -18.1903 0 0.648441
      vertex -10 0 -2.5
    endloop
  endfacet
  facet normal 0 -1 0
    outer loop
      vertex -10 0 -2.5
      vertex -18.1903 0 0.648441
      vertex -18.3113 0 0.428346
    endloop
  endfacet
  facet normal 0 -1 0
    outer loop
      vertex -10 0 -2.5
      vertex -18.3113 0 0.428346
      vertex -18.459 0 0.225152
    endloop
  endfacet
  facet normal 0 -1 0
    outer loop
      vertex -10 0 -2.5
      vertex -18.459 0 0.225152
      vertex -18.6309 0 0.0420618
    endloop
  endfacet
  facet normal 0 -1 0
    outer loop
      vertex -10 0 -2.5
      vertex -18.6309 0 0.0420618
      vertex -18.8244 0 -0.118033
    endloop
  endfacet
  facet normal 0 -1 0
    outer loop
      vertex -10 0 -2.5
      vertex -18.8244 0 -0.118033
      vertex -19.0365 0 -0.252613
    endloop
  endfacet
  facet normal 0 -1 0
    outer loop
      vertex -10 0 -2.5
      vertex -19.0365 0 -0.252613
      vertex -19.2638 0 -0.359552
    endloop
  endfacet
  facet normal 0 -1 0
    outer loop
      vertex -10 0 -2.5
      vertex -19.2638 0 -0.359552
      vertex -19.5026 0 -0.437166
    endloop
  endfacet
  facet normal 0 -1 0
    outer loop
      vertex -24 0 -2.5
      vertex -19.7493 0 -0.48423
      vertex -20 0 -0.5
    endloop
  endfacet
  facet normal 0 -1 -0
    outer loop
      vertex -19.7493 0 -0.48423
      vertex -24 0 -2.5
      vertex -19.7493 0 -0.484229
    endloop
  endfacet
  facet normal 0 -1 0
    outer loop
      vertex -24 0 -2.5
      vertex -19.5026 0 -0.437166
      vertex -19.7493 0 -0.484229
    endloop
  endfacet
  facet normal 0 -1 0
    outer loop
      vertex -10 0 -2.5
      vertex -19.5026 0 -0.437166
      vertex -24 0 -2.5
    endloop
  endfacet
  facet normal 0 -1 0
    outer loop
      vertex -16.1352 0 2.5
      vertex -10 0 -2.5
      vertex -10 0 2.5
    endloop
  endfacet
  facet normal 0.309015 0 0.951057
    outer loop
      vertex -19.0052 2.5 5.37433
      vertex -18.5275 0 5.21911
      vertex -18.5275 2.5 5.21911
    endloop
  endfacet
  facet normal 0.309015 0 0.951057
    outer loop
      vertex -18.5275 0 5.21911
      vertex -19.0052 2.5 5.37433
      vertex -19.0052 0 5.37433
    endloop
  endfacet
  facet normal -6.44954e-06 -1 1.37059e-05
    outer loop
      vertex -21.927 9.53674e-07 5.00523
      vertex -20.9948 0 5.37433
      vertex -21.4725 9.53674e-07 5.21911
    endloop
  endfacet
  facet normal -3.18171e-07 -1 -0
    outer loop
      vertex -20.9948 0 5.37433
      vertex -21.1756 5.75294e-08 3.11803
      vertex -20.9948 0 3.23278
    endloop
  endfacet
  facet normal -3.18173e-07 -1 1.43358e-13
    outer loop
      vertex -20.9948 0 5.37433
      vertex -21.3691 1.19103e-07 2.95794
      vertex -21.1756 5.75294e-08 3.11803
    endloop
  endfacet
  facet normal -3.18173e-07 -1 1.40509e-13
    outer loop
      vertex -23.3726 7.56569e-07 2.5
      vertex -21.3691 1.19103e-07 2.95794
      vertex -20.9948 0 5.37433
    endloop
  endfacet
  facet normal -3.18173e-07 -1 5.45387e-14
    outer loop
      vertex -21.3691 1.19103e-07 2.95794
      vertex -23.3726 7.56569e-07 2.5
      vertex -21.541 1.73807e-07 2.77485
    endloop
  endfacet
  facet normal -3.18173e-07 -1 6.07805e-14
    outer loop
      vertex -21.541 1.73807e-07 2.77485
      vertex -23.3726 7.56569e-07 2.5
      vertex -21.6887 2.20779e-07 2.57165
    endloop
  endfacet
  facet normal -3.18173e-07 -1 -5.10178e-12
    outer loop
      vertex -21.6887 2.20779e-07 2.57165
      vertex -23.3726 7.56569e-07 2.5
      vertex -21.728 2.33312e-07 2.5
    endloop
  endfacet
  facet normal -1.63062e-06 -1 1.97108e-06
    outer loop
      vertex -22.7382 9.53674e-07 4.41587
      vertex -20.9948 0 5.37433
      vertex -22.3511 9.53674e-07 4.73607
    endloop
  endfacet
  facet normal -0.968583 0 0.248689
    outer loop
      vertex -23.8648 9.53674e-07 2.5
      vertex -23.8042 2.5 2.73607
      vertex -23.8648 2.5 2.5
    endloop
  endfacet
  facet normal -0.968583 0 0.248689
    outer loop
      vertex -23.8042 2.5 2.73607
      vertex -23.8648 9.53674e-07 2.5
      vertex -23.8042 9.53674e-07 2.73607
    endloop
  endfacet
  facet normal -5.40354e-07 -1 2.13941e-07
    outer loop
      vertex -23.8042 9.53674e-07 2.73607
      vertex -20.9948 0 5.37433
      vertex -23.6193 9.53674e-07 3.20312
    endloop
  endfacet
  facet normal -0.0627923 0 0.998027
    outer loop
      vertex -20.5013 0 5.46846
      vertex -20.1567 2.5 5.49014
      vertex -20.5013 2.5 5.46846
    endloop
  endfacet
  facet normal -0.062792 -4.16013e-08 0.998027
    outer loop
      vertex -20.1567 2.5 5.49014
      vertex -20.5013 0 5.46846
      vertex -20 0 5.5
    endloop
  endfacet
  facet normal -0.535825 0 0.844329
    outer loop
      vertex -22.3511 2.5 4.73607
      vertex -21.927 9.53674e-07 5.00523
      vertex -21.927 2.5 5.00523
    endloop
  endfacet
  facet normal -0.535825 0 0.844329
    outer loop
      vertex -21.927 9.53674e-07 5.00523
      vertex -22.3511 2.5 4.73607
      vertex -22.3511 9.53674e-07 4.73607
    endloop
  endfacet
  facet normal 0.187381 0 0.982287
    outer loop
      vertex -19.4987 2.5 5.46846
      vertex -19.0052 0 5.37433
      vertex -19.0052 2.5 5.37433
    endloop
  endfacet
  facet normal 0.187381 0 0.982287
    outer loop
      vertex -19.0052 0 5.37433
      vertex -19.4987 2.5 5.46846
      vertex -19.4987 0 5.46846
    endloop
  endfacet
  facet normal -4.47299e-07 -1 1.14847e-07
    outer loop
      vertex -23.6939 8.77231e-07 2.5
      vertex -23.8042 9.53674e-07 2.73607
      vertex -23.8648 9.53674e-07 2.5
    endloop
  endfacet
  facet normal -4.47299e-07 -1 1.14847e-07
    outer loop
      vertex -23.8042 9.53674e-07 2.73607
      vertex -23.6939 8.77231e-07 2.5
      vertex -20.9948 0 5.37433
    endloop
  endfacet
  facet normal -0.637424 0 0.770513
    outer loop
      vertex -22.7382 2.5 4.41587
      vertex -22.3511 9.53674e-07 4.73607
      vertex -22.3511 2.5 4.73607
    endloop
  endfacet
  facet normal -0.637424 0 0.770513
    outer loop
      vertex -22.3511 9.53674e-07 4.73607
      vertex -22.7382 2.5 4.41587
      vertex -22.7382 9.53674e-07 4.41587
    endloop
  endfacet
  facet normal -2.71986e-06 -1 4.28583e-06
    outer loop
      vertex -22.3511 9.53674e-07 4.73607
      vertex -20.9948 0 5.37433
      vertex -21.927 9.53674e-07 5.00523
    endloop
  endfacet
  facet normal -0.309017 0 0.951057
    outer loop
      vertex -21.4725 2.5 5.21911
      vertex -20.9948 0 5.37433
      vertex -20.9948 2.5 5.37433
    endloop
  endfacet
  facet normal -0.309017 0 0.951057
    outer loop
      vertex -20.9948 0 5.37433
      vertex -21.4725 2.5 5.21911
      vertex -21.4725 9.53674e-07 5.21911
    endloop
  endfacet
  facet normal 0.637424 0 0.770513
    outer loop
      vertex -17.6489 2.5 4.73607
      vertex -17.2618 0 4.41587
      vertex -17.2618 2.5 4.41587
    endloop
  endfacet
  facet normal 0.637424 0 0.770513
    outer loop
      vertex -17.2618 0 4.41587
      vertex -17.6489 2.5 4.73607
      vertex -17.6489 0 4.73607
    endloop
  endfacet
  facet normal -0.0627913 0 0.998027
    outer loop
      vertex -20.1567 2.5 5.49014
      vertex -20 0 5.5
      vertex -20 2.5 5.5
    endloop
  endfacet
  facet normal -3.75516e-07 -1 4.74389e-08
    outer loop
      vertex -23.6939 8.77231e-07 2.5
      vertex -23.3726 7.56569e-07 2.5
      vertex -20.9948 0 5.37433
    endloop
  endfacet
  facet normal -8.47797e-07 -1 6.15963e-07
    outer loop
      vertex -23.3773 9.53674e-07 3.64331
      vertex -20.9948 0 5.37433
      vertex -23.0821 9.53674e-07 4.0497
    endloop
  endfacet
  facet normal -6.66479e-07 -1 3.664e-07
    outer loop
      vertex -23.6193 9.53674e-07 3.20312
      vertex -20.9948 0 5.37433
      vertex -23.3773 9.53674e-07 3.64331
    endloop
  endfacet
  facet normal -0.425781 0 0.904826
    outer loop
      vertex -21.927 2.5 5.00523
      vertex -21.4725 9.53674e-07 5.21911
      vertex -21.4725 2.5 5.21911
    endloop
  endfacet
  facet normal -0.425781 0 0.904826
    outer loop
      vertex -21.4725 9.53674e-07 5.21911
      vertex -21.927 2.5 5.00523
      vertex -21.927 9.53674e-07 5.00523
    endloop
  endfacet
  facet normal -0.18738 0 0.982287
    outer loop
      vertex -20.9948 2.5 5.37433
      vertex -20.5013 0 5.46846
      vertex -20.5013 2.5 5.46846
    endloop
  endfacet
  facet normal -0.18738 0 0.982287
    outer loop
      vertex -20.5013 0 5.46846
      vertex -20.9948 2.5 5.37433
      vertex -20.9948 0 5.37433
    endloop
  endfacet
  facet normal 0.809018 -0 0.587784
    outer loop
      vertex -16.9179 0 4.0497
      vertex -16.6227 2.5 3.64331
      vertex -16.9179 2.5 4.0497
    endloop
  endfacet
  facet normal 0.809018 0 0.587784
    outer loop
      vertex -16.6227 2.5 3.64331
      vertex -16.9179 0 4.0497
      vertex -16.6227 0 3.64331
    endloop
  endfacet
  facet normal -1.13078e-06 -1 1.06187e-06
    outer loop
      vertex -23.0821 9.53674e-07 4.0497
      vertex -20.9948 0 5.37433
      vertex -22.7382 9.53674e-07 4.41587
    endloop
  endfacet
  facet normal -0.876307 0 0.481754
    outer loop
      vertex -23.6193 9.53674e-07 3.20312
      vertex -23.3773 2.5 3.64331
      vertex -23.6193 2.5 3.20312
    endloop
  endfacet
  facet normal -0.876307 0 0.481754
    outer loop
      vertex -23.3773 2.5 3.64331
      vertex -23.6193 9.53674e-07 3.20312
      vertex -23.3773 9.53674e-07 3.64331
    endloop
  endfacet
  facet normal -0.929777 0 0.368124
    outer loop
      vertex -23.8042 9.53674e-07 2.73607
      vertex -23.6193 2.5 3.20312
      vertex -23.8042 2.5 2.73607
    endloop
  endfacet
  facet normal -0.929777 0 0.368124
    outer loop
      vertex -23.6193 2.5 3.20312
      vertex -23.8042 9.53674e-07 2.73607
      vertex -23.6193 9.53674e-07 3.20312
    endloop
  endfacet
  facet normal 0.0627919 -0 0.998027
    outer loop
      vertex -20 0 5.5
      vertex -19.6553 2.5 5.47831
      vertex -20 2.5 5.5
    endloop
  endfacet
  facet normal 0.0627917 2.66306e-08 0.998027
    outer loop
      vertex -19.6553 2.5 5.47831
      vertex -20 0 5.5
      vertex -19.4987 0 5.46846
    endloop
  endfacet
  facet normal 0.0627913 0 0.998027
    outer loop
      vertex -19.6553 2.5 5.47831
      vertex -19.4987 0 5.46846
      vertex -19.4987 2.5 5.46846
    endloop
  endfacet
  facet normal 0.72897 -0 0.684546
    outer loop
      vertex -17.2618 0 4.41587
      vertex -16.9179 2.5 4.0497
      vertex -17.2618 2.5 4.41587
    endloop
  endfacet
  facet normal 0.72897 0 0.684546
    outer loop
      vertex -16.9179 2.5 4.0497
      vertex -17.2618 0 4.41587
      vertex -16.9179 0 4.0497
    endloop
  endfacet
  facet normal 0.929777 -0 0.368124
    outer loop
      vertex -16.3807 0 3.20312
      vertex -16.1958 2.5 2.73607
      vertex -16.3807 2.5 3.20312
    endloop
  endfacet
  facet normal 0.929777 0 0.368124
    outer loop
      vertex -16.1958 2.5 2.73607
      vertex -16.3807 0 3.20312
      vertex -16.1958 0 2.73607
    endloop
  endfacet
  facet normal -0.72897 0 0.684546
    outer loop
      vertex -23.0821 9.53674e-07 4.0497
      vertex -22.7382 2.5 4.41587
      vertex -23.0821 2.5 4.0497
    endloop
  endfacet
  facet normal -0.72897 0 0.684546
    outer loop
      vertex -22.7382 2.5 4.41587
      vertex -23.0821 9.53674e-07 4.0497
      vertex -22.7382 9.53674e-07 4.41587
    endloop
  endfacet
  facet normal -0.809016 0 0.587787
    outer loop
      vertex -23.3773 9.53674e-07 3.64331
      vertex -23.0821 2.5 4.0497
      vertex -23.3773 2.5 3.64331
    endloop
  endfacet
  facet normal -0.809016 0 0.587787
    outer loop
      vertex -23.0821 2.5 4.0497
      vertex -23.3773 9.53674e-07 3.64331
      vertex -23.0821 9.53674e-07 4.0497
    endloop
  endfacet
  facet normal 0.876307 -0 0.481754
    outer loop
      vertex -16.6227 0 3.64331
      vertex -16.3807 2.5 3.20312
      vertex -16.6227 2.5 3.64331
    endloop
  endfacet
  facet normal 0.876307 0 0.481754
    outer loop
      vertex -16.3807 2.5 3.20312
      vertex -16.6227 0 3.64331
      vertex -16.3807 0 3.20312
    endloop
  endfacet
  facet normal 0.968581 -0 0.248697
    outer loop
      vertex -16.1958 0 2.73607
      vertex -16.1352 2.5 2.5
      vertex -16.1958 2.5 2.73607
    endloop
  endfacet
  facet normal 0.968581 0 0.248697
    outer loop
      vertex -16.1352 2.5 2.5
      vertex -16.1958 0 2.73607
      vertex -16.1352 0 2.5
    endloop
  endfacet
  facet normal 0.535825 0 0.844329
    outer loop
      vertex -18.073 2.5 5.00523
      vertex -17.6489 0 4.73607
      vertex -17.6489 2.5 4.73607
    endloop
  endfacet
  facet normal 0.535825 0 0.844329
    outer loop
      vertex -17.6489 0 4.73607
      vertex -18.073 2.5 5.00523
      vertex -18.073 0 5.00523
    endloop
  endfacet
  facet normal 0.425781 0 0.904826
    outer loop
      vertex -18.5275 2.5 5.21911
      vertex -18.073 0 5.00523
      vertex -18.073 2.5 5.00523
    endloop
  endfacet
  facet normal 0.425781 0 0.904826
    outer loop
      vertex -18.073 0 5.00523
      vertex -18.5275 2.5 5.21911
      vertex -18.5275 0 5.21911
    endloop
  endfacet
  facet normal -0.0571979 0 0.998363
    outer loop
      vertex -19.7493 2.5 -0.484229
      vertex -19.7493 0 -0.48423
      vertex -19.7493 0 -0.484229
    endloop
  endfacet
  facet normal -0.0627905 3.85338e-08 0.998027
    outer loop
      vertex -19.7493 0 -0.48423
      vertex -19.7493 2.5 -0.484229
      vertex -19.8277 2.5 -0.489158
    endloop
  endfacet
  facet normal -0.18738 0 0.982287
    outer loop
      vertex -19.7493 2.5 -0.484229
      vertex -19.5026 0 -0.437166
      vertex -19.5026 2.5 -0.437166
    endloop
  endfacet
  facet normal -0.18738 0 0.982287
    outer loop
      vertex -19.5026 0 -0.437166
      vertex -19.7493 2.5 -0.484229
      vertex -19.7493 0 -0.484229
    endloop
  endfacet
  facet normal -0.0627919 0 0.998027
    outer loop
      vertex -20 0 -0.5
      vertex -19.8277 2.5 -0.489158
      vertex -20 2.5 -0.5
    endloop
  endfacet
  facet normal -0.0627919 -4.39337e-09 0.998027
    outer loop
      vertex -19.8277 2.5 -0.489158
      vertex -20 0 -0.5
      vertex -19.7493 0 -0.48423
    endloop
  endfacet
  facet normal -0.72897 0 0.684545
    outer loop
      vertex -18.6309 0 0.0420618
      vertex -18.459 2.5 0.225152
      vertex -18.6309 2.5 0.0420618
    endloop
  endfacet
  facet normal -0.72897 0 0.684545
    outer loop
      vertex -18.459 2.5 0.225152
      vertex -18.6309 0 0.0420618
      vertex -18.459 0 0.225152
    endloop
  endfacet
  facet normal 0.0627928 -2.53984e-09 -0.998027
    outer loop
      vertex -20 2.5 3.5
      vertex -20 0 3.5
      vertex -20.0783 2.5 3.49507
    endloop
  endfacet
  facet normal 0.992115 -0 0.125333
    outer loop
      vertex -21.9961 0 1.37442
      vertex -21.9646 2.5 1.12524
      vertex -21.9961 2.5 1.37442
    endloop
  endfacet
  facet normal 0.992115 0 0.125333
    outer loop
      vertex -21.9646 2.5 1.12524
      vertex -21.9961 0 1.37442
      vertex -21.9646 0 1.12524
    endloop
  endfacet
  facet normal -0.425778 0 0.904828
    outer loop
      vertex -19.2638 2.5 -0.359552
      vertex -19.0365 0 -0.252613
      vertex -19.0365 2.5 -0.252613
    endloop
  endfacet
  facet normal -0.425778 0 0.904828
    outer loop
      vertex -19.0365 0 -0.252613
      vertex -19.2638 2.5 -0.359552
      vertex -19.2638 0 -0.359552
    endloop
  endfacet
  facet normal -0.968585 0 -0.248685
    outer loop
      vertex -18.0354 0 1.87476
      vertex -18.0979 2.5 2.11803
      vertex -18.0354 2.5 1.87476
    endloop
  endfacet
  facet normal -0.968585 -0 -0.248685
    outer loop
      vertex -18.0979 2.5 2.11803
      vertex -18.0354 0 1.87476
      vertex -18.0979 0 2.11803
    endloop
  endfacet
  facet normal -0.062792 2.75811e-08 -0.998027
    outer loop
      vertex -20 0 3.5
      vertex -19.8277 2.5 3.48916
      vertex -19.7493 0 3.48423
    endloop
  endfacet
  facet normal -0.0627916 0 -0.998027
    outer loop
      vertex -19.8277 2.5 3.48916
      vertex -20 0 3.5
      vertex -20 2.5 3.5
    endloop
  endfacet
  facet normal 0.637417 0 0.770519
    outer loop
      vertex -21.3691 2.5 0.0420618
      vertex -21.1756 0 -0.118033
      vertex -21.1756 2.5 -0.118033
    endloop
  endfacet
  facet normal 0.637417 0 0.770519
    outer loop
      vertex -21.1756 0 -0.118033
      vertex -21.3691 2.5 0.0420618
      vertex -21.3691 0 0.0420618
    endloop
  endfacet
  facet normal 0.18738 0 0.982287
    outer loop
      vertex -20.4974 2.5 -0.437166
      vertex -20.2507 0 -0.484229
      vertex -20.2507 2.5 -0.484229
    endloop
  endfacet
  facet normal 0.18738 0 0.982287
    outer loop
      vertex -20.2507 0 -0.484229
      vertex -20.4974 2.5 -0.437166
      vertex -20.4974 0 -0.437166
    endloop
  endfacet
  facet normal 0.72897 0 -0.684545
    outer loop
      vertex -21.3691 2.5 2.95794
      vertex -21.541 1.73807e-07 2.77485
      vertex -21.541 2.5 2.77485
    endloop
  endfacet
  facet normal 0.72897 0 -0.684545
    outer loop
      vertex -21.541 1.73807e-07 2.77485
      vertex -21.3691 2.5 2.95794
      vertex -21.3691 1.19103e-07 2.95794
    endloop
  endfacet
  facet normal 0.18738 0 -0.982287
    outer loop
      vertex -20.4974 0 3.43717
      vertex -20.2507 2.5 3.48423
      vertex -20.2507 0 3.48423
    endloop
  endfacet
  facet normal 0.18738 0 -0.982287
    outer loop
      vertex -20.2507 2.5 3.48423
      vertex -20.4974 0 3.43717
      vertex -20.4974 2.5 3.43717
    endloop
  endfacet
  facet normal -0.637421 0 0.770516
    outer loop
      vertex -18.8244 2.5 -0.118033
      vertex -18.6309 0 0.0420618
      vertex -18.6309 2.5 0.0420618
    endloop
  endfacet
  facet normal -0.637421 0 0.770516
    outer loop
      vertex -18.6309 0 0.0420618
      vertex -18.8244 2.5 -0.118033
      vertex -18.8244 0 -0.118033
    endloop
  endfacet
  facet normal -0.535828 0 0.844327
    outer loop
      vertex -19.0365 2.5 -0.252613
      vertex -18.8244 0 -0.118033
      vertex -18.8244 2.5 -0.118033
    endloop
  endfacet
  facet normal -0.535828 0 0.844327
    outer loop
      vertex -18.8244 0 -0.118033
      vertex -19.0365 2.5 -0.252613
      vertex -19.0365 0 -0.252613
    endloop
  endfacet
  facet normal -0.809017 0 0.587785
    outer loop
      vertex -18.459 0 0.225152
      vertex -18.3113 2.5 0.428346
      vertex -18.459 2.5 0.225152
    endloop
  endfacet
  facet normal -0.809017 0 0.587785
    outer loop
      vertex -18.3113 2.5 0.428346
      vertex -18.459 0 0.225152
      vertex -18.3113 0 0.428346
    endloop
  endfacet
  facet normal -0.309017 0 -0.951056
    outer loop
      vertex -19.5026 0 3.43717
      vertex -19.2638 2.5 3.35955
      vertex -19.2638 0 3.35955
    endloop
  endfacet
  facet normal -0.309017 0 -0.951056
    outer loop
      vertex -19.2638 2.5 3.35955
      vertex -19.5026 0 3.43717
      vertex -19.5026 2.5 3.43717
    endloop
  endfacet
  facet normal -0.425778 0 -0.904828
    outer loop
      vertex -19.2638 0 3.35955
      vertex -19.0365 2.5 3.25261
      vertex -19.0365 0 3.25261
    endloop
  endfacet
  facet normal -0.425778 0 -0.904828
    outer loop
      vertex -19.0365 2.5 3.25261
      vertex -19.2638 0 3.35955
      vertex -19.2638 2.5 3.35955
    endloop
  endfacet
  facet normal -0.929774 0 -0.368131
    outer loop
      vertex -18.0979 0 2.11803
      vertex -18.1903 2.5 2.35156
      vertex -18.0979 2.5 2.11803
    endloop
  endfacet
  facet normal -0.929774 -0 -0.368131
    outer loop
      vertex -18.1903 2.5 2.35156
      vertex -18.0979 0 2.11803
      vertex -18.1903 0 2.35156
    endloop
  endfacet
  facet normal 0.929777 -0 0.368124
    outer loop
      vertex -21.9021 0 0.881966
      vertex -21.8097 2.5 0.648441
      vertex -21.9021 2.5 0.881966
    endloop
  endfacet
  facet normal 0.929777 0 0.368124
    outer loop
      vertex -21.8097 2.5 0.648441
      vertex -21.9021 0 0.881966
      vertex -21.8097 0 0.648441
    endloop
  endfacet
  facet normal 0.876307 -0 0.481753
    outer loop
      vertex -21.8097 0 0.648441
      vertex -21.6887 2.5 0.428346
      vertex -21.8097 2.5 0.648441
    endloop
  endfacet
  facet normal 0.876307 0 0.481753
    outer loop
      vertex -21.6887 2.5 0.428346
      vertex -21.8097 0 0.648441
      vertex -21.6887 0 0.428346
    endloop
  endfacet
  facet normal 0.0643197 0 0.997929
    outer loop
      vertex -20 2.5 -0.5
      vertex -20 0 -0.499999
      vertex -20 0 -0.5
    endloop
  endfacet
  facet normal 0.062792 9.3622e-09 0.998027
    outer loop
      vertex -20 0 -0.499999
      vertex -20 2.5 -0.5
      vertex -20.0783 2.5 -0.495071
    endloop
  endfacet
  facet normal 0.968585 0 -0.248685
    outer loop
      vertex -21.9021 0 2.11803
      vertex -21.9646 2.5 1.87476
      vertex -21.9021 2.5 2.11803
    endloop
  endfacet
  facet normal 0.968585 0 -0.248685
    outer loop
      vertex -21.9646 2.5 1.87476
      vertex -21.9021 0 2.11803
      vertex -21.9646 0 1.87476
    endloop
  endfacet
  facet normal 1 -0 0
    outer loop
      vertex -21.9961 0 1.62558
      vertex -21.9961 2.5 1.37442
      vertex -21.9961 2.5 1.62558
    endloop
  endfacet
  facet normal 1 0 0
    outer loop
      vertex -21.9961 2.5 1.37442
      vertex -21.9961 0 1.62558
      vertex -21.9961 0 1.37442
    endloop
  endfacet
  facet normal 0.425778 0 -0.904828
    outer loop
      vertex -20.9635 0 3.25261
      vertex -20.7362 2.5 3.35955
      vertex -20.7362 0 3.35955
    endloop
  endfacet
  facet normal 0.425778 0 -0.904828
    outer loop
      vertex -20.7362 2.5 3.35955
      vertex -20.9635 0 3.25261
      vertex -20.9635 2.5 3.25261
    endloop
  endfacet
  facet normal 0.309019 0 -0.951056
    outer loop
      vertex -20.7362 0 3.35955
      vertex -20.4974 2.5 3.43717
      vertex -20.4974 0 3.43717
    endloop
  endfacet
  facet normal 0.309019 0 -0.951056
    outer loop
      vertex -20.4974 2.5 3.43717
      vertex -20.7362 0 3.35955
      vertex -20.7362 2.5 3.35955
    endloop
  endfacet
  facet normal 0.062792 -2.75811e-08 -0.998027
    outer loop
      vertex -20.2507 0 3.48423
      vertex -20.0783 2.5 3.49507
      vertex -20 0 3.5
    endloop
  endfacet
  facet normal 0.0627916 0 -0.998027
    outer loop
      vertex -20.0783 2.5 3.49507
      vertex -20.2507 0 3.48423
      vertex -20.2507 2.5 3.48423
    endloop
  endfacet
  facet normal -0.309019 0 0.951056
    outer loop
      vertex -19.5026 2.5 -0.437166
      vertex -19.2638 0 -0.359552
      vertex -19.2638 2.5 -0.359552
    endloop
  endfacet
  facet normal -0.309019 0 0.951056
    outer loop
      vertex -19.2638 0 -0.359552
      vertex -19.5026 2.5 -0.437166
      vertex -19.5026 0 -0.437166
    endloop
  endfacet
  facet normal -1 0 0
    outer loop
      vertex -18.0039 0 1.37442
      vertex -18.0039 2.5 1.62558
      vertex -18.0039 2.5 1.37442
    endloop
  endfacet
  facet normal -1 -0 0
    outer loop
      vertex -18.0039 2.5 1.62558
      vertex -18.0039 0 1.37442
      vertex -18.0039 0 1.62558
    endloop
  endfacet
  facet normal -0.992115 0 0.125333
    outer loop
      vertex -18.0354 0 1.12524
      vertex -18.0039 2.5 1.37442
      vertex -18.0354 2.5 1.12524
    endloop
  endfacet
  facet normal -0.992115 0 0.125333
    outer loop
      vertex -18.0039 2.5 1.37442
      vertex -18.0354 0 1.12524
      vertex -18.0039 0 1.37442
    endloop
  endfacet
  facet normal -0.929774 0 0.368131
    outer loop
      vertex -18.1903 0 0.648441
      vertex -18.0979 2.5 0.881966
      vertex -18.1903 2.5 0.648441
    endloop
  endfacet
  facet normal -0.929774 0 0.368131
    outer loop
      vertex -18.0979 2.5 0.881966
      vertex -18.1903 0 0.648441
      vertex -18.0979 0 0.881966
    endloop
  endfacet
  facet normal -0.0627913 5.04364e-08 -0.998027
    outer loop
      vertex -19.7493 2.5 3.48423
      vertex -19.7493 0 3.48423
      vertex -19.8277 2.5 3.48916
    endloop
  endfacet
  facet normal -0.992115 0 -0.125333
    outer loop
      vertex -18.0039 0 1.62558
      vertex -18.0354 2.5 1.87476
      vertex -18.0039 2.5 1.62558
    endloop
  endfacet
  facet normal -0.992115 -0 -0.125333
    outer loop
      vertex -18.0354 2.5 1.87476
      vertex -18.0039 0 1.62558
      vertex -18.0354 0 1.87476
    endloop
  endfacet
  facet normal 0.968585 -0 0.248685
    outer loop
      vertex -21.9646 0 1.12524
      vertex -21.9021 2.5 0.881966
      vertex -21.9646 2.5 1.12524
    endloop
  endfacet
  facet normal 0.968585 0 0.248685
    outer loop
      vertex -21.9021 2.5 0.881966
      vertex -21.9646 0 1.12524
      vertex -21.9021 0 0.881966
    endloop
  endfacet
  facet normal 0.809017 -0 0.587785
    outer loop
      vertex -21.6887 0 0.428346
      vertex -21.541 2.5 0.225152
      vertex -21.6887 2.5 0.428346
    endloop
  endfacet
  facet normal 0.809017 0 0.587785
    outer loop
      vertex -21.541 2.5 0.225152
      vertex -21.6887 0 0.428346
      vertex -21.541 0 0.225152
    endloop
  endfacet
  facet normal 0.72897 -0 0.684545
    outer loop
      vertex -21.541 0 0.225152
      vertex -21.3691 2.5 0.0420618
      vertex -21.541 2.5 0.225152
    endloop
  endfacet
  facet normal 0.72897 0 0.684545
    outer loop
      vertex -21.3691 2.5 0.0420618
      vertex -21.541 0 0.225152
      vertex -21.3691 0 0.0420618
    endloop
  endfacet
  facet normal 0.535828 0 0.844327
    outer loop
      vertex -21.1756 2.5 -0.118033
      vertex -20.9635 0 -0.252613
      vertex -20.9635 2.5 -0.252613
    endloop
  endfacet
  facet normal 0.535828 0 0.844327
    outer loop
      vertex -20.9635 0 -0.252613
      vertex -21.1756 2.5 -0.118033
      vertex -21.1756 0 -0.118033
    endloop
  endfacet
  facet normal 0.425778 0 0.904828
    outer loop
      vertex -20.9635 2.5 -0.252613
      vertex -20.7362 0 -0.359552
      vertex -20.7362 2.5 -0.359552
    endloop
  endfacet
  facet normal 0.425778 0 0.904828
    outer loop
      vertex -20.7362 0 -0.359552
      vertex -20.9635 2.5 -0.252613
      vertex -20.9635 0 -0.252613
    endloop
  endfacet
  facet normal 0.309019 0 0.951056
    outer loop
      vertex -20.7362 2.5 -0.359552
      vertex -20.4974 0 -0.437166
      vertex -20.4974 2.5 -0.437166
    endloop
  endfacet
  facet normal 0.309019 0 0.951056
    outer loop
      vertex -20.4974 0 -0.437166
      vertex -20.7362 2.5 -0.359552
      vertex -20.7362 0 -0.359552
    endloop
  endfacet
  facet normal 0.0627919 -0 0.998027
    outer loop
      vertex -20.2507 0 -0.484229
      vertex -20.0783 2.5 -0.495071
      vertex -20.2507 2.5 -0.484229
    endloop
  endfacet
  facet normal 0.0627919 4.39337e-09 0.998027
    outer loop
      vertex -20.0783 2.5 -0.495071
      vertex -20.2507 0 -0.484229
      vertex -20 0 -0.499999
    endloop
  endfacet
  facet normal 0.809017 0 -0.587785
    outer loop
      vertex -21.541 2.5 2.77485
      vertex -21.6887 2.20779e-07 2.57165
      vertex -21.6887 2.5 2.57165
    endloop
  endfacet
  facet normal 0.809017 0 -0.587785
    outer loop
      vertex -21.6887 2.20779e-07 2.57165
      vertex -21.541 2.5 2.77485
      vertex -21.541 1.73807e-07 2.77485
    endloop
  endfacet
  facet normal 0.876307 3.98522e-07 -0.481753
    outer loop
      vertex -21.6887 2.5 2.57165
      vertex -21.728 2.33312e-07 2.5
      vertex -21.8097 2.5 2.35156
    endloop
  endfacet
  facet normal 0.876313 0 -0.481742
    outer loop
      vertex -21.728 2.33312e-07 2.5
      vertex -21.6887 2.5 2.57165
      vertex -21.6887 2.20779e-07 2.57165
    endloop
  endfacet
  facet normal 0.876304 0 -0.481758
    outer loop
      vertex -21.8097 0 2.35156
      vertex -21.728 2.33312e-07 2.5
      vertex -21.728 0 2.5
    endloop
  endfacet
  facet normal 0.876304 0 -0.481758
    outer loop
      vertex -21.728 2.33312e-07 2.5
      vertex -21.8097 0 2.35156
      vertex -21.8097 2.5 2.35156
    endloop
  endfacet
  facet normal 0.929777 0 -0.368124
    outer loop
      vertex -21.8097 0 2.35156
      vertex -21.9021 2.5 2.11803
      vertex -21.8097 2.5 2.35156
    endloop
  endfacet
  facet normal 0.929777 0 -0.368124
    outer loop
      vertex -21.9021 2.5 2.11803
      vertex -21.8097 0 2.35156
      vertex -21.9021 0 2.11803
    endloop
  endfacet
  facet normal 0.992115 0 -0.125333
    outer loop
      vertex -21.9646 0 1.87476
      vertex -21.9961 2.5 1.62558
      vertex -21.9646 2.5 1.87476
    endloop
  endfacet
  facet normal 0.992115 0 -0.125333
    outer loop
      vertex -21.9961 2.5 1.62558
      vertex -21.9646 0 1.87476
      vertex -21.9961 0 1.62558
    endloop
  endfacet
  facet normal 0.535827 0 -0.844328
    outer loop
      vertex -20.9948 0 3.23278
      vertex -20.9635 2.5 3.25261
      vertex -20.9635 0 3.25261
    endloop
  endfacet
  facet normal 0.535824 0 -0.844329
    outer loop
      vertex -21.1756 2.5 3.11803
      vertex -20.9948 0 3.23278
      vertex -21.1756 5.75294e-08 3.11803
    endloop
  endfacet
  facet normal 0.535825 4.40749e-08 -0.844329
    outer loop
      vertex -20.9948 0 3.23278
      vertex -21.1756 2.5 3.11803
      vertex -20.9635 2.5 3.25261
    endloop
  endfacet
  facet normal 0.637423 0 -0.770514
    outer loop
      vertex -21.3691 1.19103e-07 2.95794
      vertex -21.1756 2.5 3.11803
      vertex -21.1756 5.75294e-08 3.11803
    endloop
  endfacet
  facet normal 0.637423 0 -0.770514
    outer loop
      vertex -21.1756 2.5 3.11803
      vertex -21.3691 1.19103e-07 2.95794
      vertex -21.3691 2.5 2.95794
    endloop
  endfacet
  facet normal -0.968585 0 0.248685
    outer loop
      vertex -18.0979 0 0.881966
      vertex -18.0354 2.5 1.12524
      vertex -18.0979 2.5 0.881966
    endloop
  endfacet
  facet normal -0.968585 0 0.248685
    outer loop
      vertex -18.0354 2.5 1.12524
      vertex -18.0979 0 0.881966
      vertex -18.0354 0 1.12524
    endloop
  endfacet
  facet normal -0.876307 0 0.481753
    outer loop
      vertex -18.3113 0 0.428346
      vertex -18.1903 2.5 0.648441
      vertex -18.3113 2.5 0.428346
    endloop
  endfacet
  facet normal -0.876307 0 0.481753
    outer loop
      vertex -18.1903 2.5 0.648441
      vertex -18.3113 0 0.428346
      vertex -18.1903 0 0.648441
    endloop
  endfacet
  facet normal -0.809017 0 -0.587785
    outer loop
      vertex -18.3113 0 2.57165
      vertex -18.459 2.5 2.77485
      vertex -18.3113 2.5 2.57165
    endloop
  endfacet
  facet normal -0.809017 -0 -0.587785
    outer loop
      vertex -18.459 2.5 2.77485
      vertex -18.3113 0 2.57165
      vertex -18.459 0 2.77485
    endloop
  endfacet
  facet normal -0.876307 0 -0.481753
    outer loop
      vertex -18.1903 0 2.35156
      vertex -18.3113 2.5 2.57165
      vertex -18.1903 2.5 2.35156
    endloop
  endfacet
  facet normal -0.876307 -0 -0.481753
    outer loop
      vertex -18.3113 2.5 2.57165
      vertex -18.1903 0 2.35156
      vertex -18.3113 0 2.57165
    endloop
  endfacet
  facet normal -0.72897 0 -0.684545
    outer loop
      vertex -18.459 0 2.77485
      vertex -18.6309 2.5 2.95794
      vertex -18.459 2.5 2.77485
    endloop
  endfacet
  facet normal -0.72897 -0 -0.684545
    outer loop
      vertex -18.6309 2.5 2.95794
      vertex -18.459 0 2.77485
      vertex -18.6309 0 2.95794
    endloop
  endfacet
  facet normal -0.187382 0 -0.982287
    outer loop
      vertex -19.7493 0 3.48423
      vertex -19.5026 2.5 3.43717
      vertex -19.5026 0 3.43717
    endloop
  endfacet
  facet normal -0.187382 0 -0.982287
    outer loop
      vertex -19.5026 2.5 3.43717
      vertex -19.7493 0 3.48423
      vertex -19.7493 2.5 3.48423
    endloop
  endfacet
  facet normal -0.535828 0 -0.844327
    outer loop
      vertex -19.0365 0 3.25261
      vertex -18.8244 2.5 3.11803
      vertex -18.8244 0 3.11803
    endloop
  endfacet
  facet normal -0.535828 0 -0.844327
    outer loop
      vertex -18.8244 2.5 3.11803
      vertex -19.0365 0 3.25261
      vertex -19.0365 2.5 3.25261
    endloop
  endfacet
  facet normal -0.637423 0 -0.770514
    outer loop
      vertex -18.8244 0 3.11803
      vertex -18.6309 2.5 2.95794
      vertex -18.6309 0 2.95794
    endloop
  endfacet
  facet normal -0.637423 0 -0.770514
    outer loop
      vertex -18.6309 2.5 2.95794
      vertex -18.8244 0 3.11803
      vertex -18.8244 2.5 3.11803
    endloop
  endfacet
  facet normal 0 -1 0
    outer loop
      vertex -10 -3 -2.5
      vertex -6.5 -3 2.5
      vertex -10 -3 2.5
    endloop
  endfacet
  facet normal 0 -1 -0
    outer loop
      vertex -6.5 -3 2.5
      vertex -10 -3 -2.5
      vertex -6.5 -3 -2.5
    endloop
  endfacet
  facet normal -1 0 0
    outer loop
      vertex -10 -3 -2.5
      vertex -10 0 2.5
      vertex -10 0 -2.5
    endloop
  endfacet
  facet normal -1 -0 0
    outer loop
      vertex -10 0 2.5
      vertex -10 -3 -2.5
      vertex -10 -3 2.5
    endloop
  endfacet
  facet normal 0 1 -0
    outer loop
      vertex -3 2.5 -2.5
      vertex -16.1352 2.5 2.5
      vertex -3 2.5 2.5
    endloop
  endfacet
  facet normal 0 1 0
    outer loop
      vertex -16.1352 2.5 2.5
      vertex -18.0979 2.5 2.11803
      vertex -18.1903 2.5 2.35156
    endloop
  endfacet
  facet normal 0 1 0
    outer loop
      vertex -16.1352 2.5 2.5
      vertex -18.0354 2.5 1.87476
      vertex -18.0979 2.5 2.11803
    endloop
  endfacet
  facet normal 0 1 0
    outer loop
      vertex -16.1352 2.5 2.5
      vertex -18.0039 2.5 1.62558
      vertex -18.0354 2.5 1.87476
    endloop
  endfacet
  facet normal 0 1 0
    outer loop
      vertex -16.1352 2.5 2.5
      vertex -18.0039 2.5 1.37442
      vertex -18.0039 2.5 1.62558
    endloop
  endfacet
  facet normal 0 1 0
    outer loop
      vertex -16.1352 2.5 2.5
      vertex -18.0354 2.5 1.12524
      vertex -18.0039 2.5 1.37442
    endloop
  endfacet
  facet normal -0 1 0
    outer loop
      vertex -18.3113 2.5 0.428346
      vertex -16.1352 2.5 2.5
      vertex -3 2.5 -2.5
    endloop
  endfacet
  facet normal 0 1 0
    outer loop
      vertex -16.1352 2.5 2.5
      vertex -18.0979 2.5 0.881966
      vertex -18.0354 2.5 1.12524
    endloop
  endfacet
  facet normal 0 1 0
    outer loop
      vertex -16.1352 2.5 2.5
      vertex -18.1903 2.5 0.648441
      vertex -18.0979 2.5 0.881966
    endloop
  endfacet
  facet normal 0 1 0
    outer loop
      vertex -16.1352 2.5 2.5
      vertex -18.3113 2.5 0.428346
      vertex -18.1903 2.5 0.648441
    endloop
  endfacet
  facet normal 0 1 0
    outer loop
      vertex -18.3113 2.5 0.428346
      vertex -3 2.5 -2.5
      vertex -18.459 2.5 0.225152
    endloop
  endfacet
  facet normal 0 1 0
    outer loop
      vertex -18.459 2.5 0.225152
      vertex -3 2.5 -2.5
      vertex -18.6309 2.5 0.0420618
    endloop
  endfacet
  facet normal 0 1 0
    outer loop
      vertex -18.6309 2.5 0.0420618
      vertex -3 2.5 -2.5
      vertex -18.8244 2.5 -0.118033
    endloop
  endfacet
  facet normal 0 1 0
    outer loop
      vertex -18.8244 2.5 -0.118033
      vertex -3 2.5 -2.5
      vertex -19.0365 2.5 -0.252613
    endloop
  endfacet
  facet normal 0 1 0
    outer loop
      vertex -19.0365 2.5 -0.252613
      vertex -3 2.5 -2.5
      vertex -19.2638 2.5 -0.359552
    endloop
  endfacet
  facet normal 0 1 0
    outer loop
      vertex -19.2638 2.5 -0.359552
      vertex -3 2.5 -2.5
      vertex -19.5026 2.5 -0.437166
    endloop
  endfacet
  facet normal 0 1 0
    outer loop
      vertex -24 2.5 -2.5
      vertex -19.8277 2.5 -0.489158
      vertex -19.7493 2.5 -0.484229
    endloop
  endfacet
  facet normal 0 1 0
    outer loop
      vertex -19.5026 2.5 -0.437166
      vertex -24 2.5 -2.5
      vertex -19.7493 2.5 -0.484229
    endloop
  endfacet
  facet normal 0 1 0
    outer loop
      vertex -24 2.5 -2.5
      vertex -19.5026 2.5 -0.437166
      vertex -3 2.5 -2.5
    endloop
  endfacet
  facet normal 0 1 0
    outer loop
      vertex -20 2.5 3.5
      vertex -20 2.5 5.5
      vertex -19.6553 2.5 5.47831
    endloop
  endfacet
  facet normal 0 1 0
    outer loop
      vertex -19.7493 2.5 3.48423
      vertex -19.6553 2.5 5.47831
      vertex -19.4987 2.5 5.46846
    endloop
  endfacet
  facet normal 0 1 0
    outer loop
      vertex -20 2.5 5.5
      vertex -20 2.5 3.5
      vertex -20.1567 2.5 5.49014
    endloop
  endfacet
  facet normal 0 1 0
    outer loop
      vertex -19.7493 2.5 3.48423
      vertex -19.4987 2.5 5.46846
      vertex -19.0052 2.5 5.37433
    endloop
  endfacet
  facet normal 0 1 0
    outer loop
      vertex -19.6553 2.5 5.47831
      vertex -19.8277 2.5 3.48916
      vertex -20 2.5 3.5
    endloop
  endfacet
  facet normal 0 1 0
    outer loop
      vertex -19.5026 2.5 3.43717
      vertex -19.0052 2.5 5.37433
      vertex -18.5275 2.5 5.21911
    endloop
  endfacet
  facet normal 0 1 -0
    outer loop
      vertex -20.0783 2.5 3.49507
      vertex -20.1567 2.5 5.49014
      vertex -20 2.5 3.5
    endloop
  endfacet
  facet normal 0 1 0
    outer loop
      vertex -19.2638 2.5 3.35955
      vertex -18.5275 2.5 5.21911
      vertex -18.073 2.5 5.00523
    endloop
  endfacet
  facet normal 0 1 0
    outer loop
      vertex -20.2507 2.5 3.48423
      vertex -20.1567 2.5 5.49014
      vertex -20.0783 2.5 3.49507
    endloop
  endfacet
  facet normal 0 1 0
    outer loop
      vertex -19.0365 2.5 3.25261
      vertex -18.073 2.5 5.00523
      vertex -17.6489 2.5 4.73607
    endloop
  endfacet
  facet normal 0 1 0
    outer loop
      vertex -20.1567 2.5 5.49014
      vertex -20.2507 2.5 3.48423
      vertex -20.5013 2.5 5.46846
    endloop
  endfacet
  facet normal 0 1 0
    outer loop
      vertex -18.8244 2.5 3.11803
      vertex -17.6489 2.5 4.73607
      vertex -17.2618 2.5 4.41587
    endloop
  endfacet
  facet normal 0 1 0
    outer loop
      vertex -20.5013 2.5 5.46846
      vertex -20.2507 2.5 3.48423
      vertex -20.9948 2.5 5.37433
    endloop
  endfacet
  facet normal 0 1 0
    outer loop
      vertex -18.6309 2.5 2.95794
      vertex -17.2618 2.5 4.41587
      vertex -16.9179 2.5 4.0497
    endloop
  endfacet
  facet normal 0 1 0
    outer loop
      vertex -20.9948 2.5 5.37433
      vertex -20.4974 2.5 3.43717
      vertex -21.4725 2.5 5.21911
    endloop
  endfacet
  facet normal 0 1 0
    outer loop
      vertex -18.459 2.5 2.77485
      vertex -16.9179 2.5 4.0497
      vertex -16.6227 2.5 3.64331
    endloop
  endfacet
  facet normal 0 1 -0
    outer loop
      vertex -20.7362 2.5 3.35955
      vertex -21.4725 2.5 5.21911
      vertex -20.4974 2.5 3.43717
    endloop
  endfacet
  facet normal 0 1 0
    outer loop
      vertex -21.4725 2.5 5.21911
      vertex -20.7362 2.5 3.35955
      vertex -21.927 2.5 5.00523
    endloop
  endfacet
  facet normal 0 1 -0
    outer loop
      vertex -20.4974 2.5 3.43717
      vertex -20.9948 2.5 5.37433
      vertex -20.2507 2.5 3.48423
    endloop
  endfacet
  facet normal 0 1 0
    outer loop
      vertex -19.6553 2.5 5.47831
      vertex -19.7493 2.5 3.48423
      vertex -19.8277 2.5 3.48916
    endloop
  endfacet
  facet normal 0 1 0
    outer loop
      vertex -19.0052 2.5 5.37433
      vertex -19.5026 2.5 3.43717
      vertex -19.7493 2.5 3.48423
    endloop
  endfacet
  facet normal 0 1 0
    outer loop
      vertex -18.5275 2.5 5.21911
      vertex -19.2638 2.5 3.35955
      vertex -19.5026 2.5 3.43717
    endloop
  endfacet
  facet normal 0 1 0
    outer loop
      vertex -18.073 2.5 5.00523
      vertex -19.0365 2.5 3.25261
      vertex -19.2638 2.5 3.35955
    endloop
  endfacet
  facet normal 0 1 0
    outer loop
      vertex -18.3113 2.5 2.57165
      vertex -16.6227 2.5 3.64331
      vertex -16.3807 2.5 3.20312
    endloop
  endfacet
  facet normal 0 1 0
    outer loop
      vertex -17.6489 2.5 4.73607
      vertex -18.8244 2.5 3.11803
      vertex -19.0365 2.5 3.25261
    endloop
  endfacet
  facet normal 0 1 0
    outer loop
      vertex -17.2618 2.5 4.41587
      vertex -18.6309 2.5 2.95794
      vertex -18.8244 2.5 3.11803
    endloop
  endfacet
  facet normal 0 1 0
    outer loop
      vertex -16.9179 2.5 4.0497
      vertex -18.459 2.5 2.77485
      vertex -18.6309 2.5 2.95794
    endloop
  endfacet
  facet normal 0 1 0
    outer loop
      vertex -18.1903 2.5 2.35156
      vertex -16.3807 2.5 3.20312
      vertex -16.1958 2.5 2.73607
    endloop
  endfacet
  facet normal 0 1 0
    outer loop
      vertex -16.6227 2.5 3.64331
      vertex -18.3113 2.5 2.57165
      vertex -18.459 2.5 2.77485
    endloop
  endfacet
  facet normal 0 1 0
    outer loop
      vertex -18.1903 2.5 2.35156
      vertex -16.1958 2.5 2.73607
      vertex -16.1352 2.5 2.5
    endloop
  endfacet
  facet normal 0 1 0
    outer loop
      vertex -16.3807 2.5 3.20312
      vertex -18.1903 2.5 2.35156
      vertex -18.3113 2.5 2.57165
    endloop
  endfacet
  facet normal 0 1 -0
    outer loop
      vertex -20.9635 2.5 3.25261
      vertex -21.927 2.5 5.00523
      vertex -20.7362 2.5 3.35955
    endloop
  endfacet
  facet normal 0 1 0
    outer loop
      vertex -21.927 2.5 5.00523
      vertex -20.9635 2.5 3.25261
      vertex -22.3511 2.5 4.73607
    endloop
  endfacet
  facet normal 0 1 -0
    outer loop
      vertex -21.1756 2.5 3.11803
      vertex -22.3511 2.5 4.73607
      vertex -20.9635 2.5 3.25261
    endloop
  endfacet
  facet normal 0 1 0
    outer loop
      vertex -22.3511 2.5 4.73607
      vertex -21.1756 2.5 3.11803
      vertex -22.7382 2.5 4.41587
    endloop
  endfacet
  facet normal 0 1 -0
    outer loop
      vertex -21.3691 2.5 2.95794
      vertex -22.7382 2.5 4.41587
      vertex -21.1756 2.5 3.11803
    endloop
  endfacet
  facet normal 0 1 0
    outer loop
      vertex -22.7382 2.5 4.41587
      vertex -21.3691 2.5 2.95794
      vertex -23.0821 2.5 4.0497
    endloop
  endfacet
  facet normal 0 1 -0
    outer loop
      vertex -21.541 2.5 2.77485
      vertex -23.0821 2.5 4.0497
      vertex -21.3691 2.5 2.95794
    endloop
  endfacet
  facet normal 0 1 0
    outer loop
      vertex -23.0821 2.5 4.0497
      vertex -21.541 2.5 2.77485
      vertex -23.3773 2.5 3.64331
    endloop
  endfacet
  facet normal 0 1 -0
    outer loop
      vertex -21.6887 2.5 2.57165
      vertex -23.3773 2.5 3.64331
      vertex -21.541 2.5 2.77485
    endloop
  endfacet
  facet normal 0 1 0
    outer loop
      vertex -23.3773 2.5 3.64331
      vertex -21.6887 2.5 2.57165
      vertex -23.6193 2.5 3.20312
    endloop
  endfacet
  facet normal 0 1 -0
    outer loop
      vertex -21.8097 2.5 2.35156
      vertex -23.6193 2.5 3.20312
      vertex -21.6887 2.5 2.57165
    endloop
  endfacet
  facet normal 0 1 0
    outer loop
      vertex -23.6193 2.5 3.20312
      vertex -21.8097 2.5 2.35156
      vertex -23.8042 2.5 2.73607
    endloop
  endfacet
  facet normal 0 1 -0
    outer loop
      vertex -21.9021 2.5 2.11803
      vertex -23.8042 2.5 2.73607
      vertex -21.8097 2.5 2.35156
    endloop
  endfacet
  facet normal 0 1 0
    outer loop
      vertex -23.8042 2.5 2.73607
      vertex -21.9021 2.5 2.11803
      vertex -23.8648 2.5 2.5
    endloop
  endfacet
  facet normal 0 1 -0
    outer loop
      vertex -21.9646 2.5 1.87476
      vertex -23.8648 2.5 2.5
      vertex -21.9021 2.5 2.11803
    endloop
  endfacet
  facet normal 0 1 -0
    outer loop
      vertex -21.9961 2.5 1.62558
      vertex -23.8648 2.5 2.5
      vertex -21.9646 2.5 1.87476
    endloop
  endfacet
  facet normal 0 1 -0
    outer loop
      vertex -21.9961 2.5 1.37442
      vertex -23.8648 2.5 2.5
      vertex -21.9961 2.5 1.62558
    endloop
  endfacet
  facet normal 0 1 0
    outer loop
      vertex -21.9646 2.5 1.12524
      vertex -23.8648 2.5 2.5
      vertex -21.9961 2.5 1.37442
    endloop
  endfacet
  facet normal 0 1 0
    outer loop
      vertex -21.9021 2.5 0.881966
      vertex -23.8648 2.5 2.5
      vertex -21.9646 2.5 1.12524
    endloop
  endfacet
  facet normal 0 1 0
    outer loop
      vertex -23.8648 2.5 2.5
      vertex -21.9021 2.5 0.881966
      vertex -24 2.5 2.5
    endloop
  endfacet
  facet normal 0 1 0
    outer loop
      vertex -24 2.5 -2.5
      vertex -21.9021 2.5 0.881966
      vertex -21.8097 2.5 0.648441
    endloop
  endfacet
  facet normal 0 1 0
    outer loop
      vertex -24 2.5 -2.5
      vertex -21.8097 2.5 0.648441
      vertex -21.6887 2.5 0.428346
    endloop
  endfacet
  facet normal 0 1 0
    outer loop
      vertex -24 2.5 -2.5
      vertex -21.6887 2.5 0.428346
      vertex -21.541 2.5 0.225152
    endloop
  endfacet
  facet normal 0 1 0
    outer loop
      vertex -24 2.5 -2.5
      vertex -21.541 2.5 0.225152
      vertex -21.3691 2.5 0.0420618
    endloop
  endfacet
  facet normal 0 1 0
    outer loop
      vertex -24 2.5 -2.5
      vertex -20.0783 2.5 -0.495071
      vertex -20 2.5 -0.5
    endloop
  endfacet
  facet normal 0 1 0
    outer loop
      vertex -19.8277 2.5 -0.489158
      vertex -24 2.5 -2.5
      vertex -20 2.5 -0.5
    endloop
  endfacet
  facet normal 0 1 0
    outer loop
      vertex -21.9021 2.5 0.881966
      vertex -24 2.5 -2.5
      vertex -24 2.5 2.5
    endloop
  endfacet
  facet normal 0 1 0
    outer loop
      vertex -21.1756 2.5 -0.118033
      vertex -24 2.5 -2.5
      vertex -21.3691 2.5 0.0420618
    endloop
  endfacet
  facet normal 0 1 0
    outer loop
      vertex -20.9635 2.5 -0.252613
      vertex -24 2.5 -2.5
      vertex -21.1756 2.5 -0.118033
    endloop
  endfacet
  facet normal 0 1 0
    outer loop
      vertex -20.7362 2.5 -0.359552
      vertex -24 2.5 -2.5
      vertex -20.9635 2.5 -0.252613
    endloop
  endfacet
  facet normal 0 1 0
    outer loop
      vertex -20.4974 2.5 -0.437166
      vertex -24 2.5 -2.5
      vertex -20.7362 2.5 -0.359552
    endloop
  endfacet
  facet normal 0 1 0
    outer loop
      vertex -20.2507 2.5 -0.484229
      vertex -24 2.5 -2.5
      vertex -20.4974 2.5 -0.437166
    endloop
  endfacet
  facet normal 0 1 0
    outer loop
      vertex -20.0783 2.5 -0.495071
      vertex -24 2.5 -2.5
      vertex -20.2507 2.5 -0.484229
    endloop
  endfacet
  facet normal 0 1 -0
    outer loop
      vertex 6.5 2.5 -2.5
      vertex 3 2.5 2.5
      vertex 6.5 2.5 2.5
    endloop
  endfacet
  facet normal 0 1 0
    outer loop
      vertex 3 2.5 2.5
      vertex 6.5 2.5 -2.5
      vertex 3 2.5 -2.5
    endloop
  endfacet
endsolid OpenSCAD_Model
