  0
SECTION
  2
BLOCKS
  0
ENDSEC
  0
SECTION
  2
ENTITIES
  0
LINE
  8
0
 10
195
 20
14.9
 11
170
 21
14.9
  0
LINE
  8
0
 10
170
 20
14.9
 11
170
 21
18.1
  0
LINE
  8
0
 10
170
 20
18.1
 11
195
 21
18.1
  0
LINE
  8
0
 10
195
 20
18.1
 11
195
 21
31.5
  0
LINE
  8
0
 10
195
 20
31.5
 11
145
 21
31.5
  0
LINE
  8
0
 10
145
 20
31.5
 11
145
 21
1.5
  0
LINE
  8
0
 10
145
 20
1.5
 11
195
 21
1.5
  0
LINE
  8
0
 10
195
 20
1.5
 11
195
 21
14.9
  0
LINE
  8
0
 10
251.2
 20
14.9
 11
226.2
 21
14.9
  0
LINE
  8
0
 10
226.2
 20
14.9
 11
226.2
 21
18.1
  0
LINE
  8
0
 10
226.2
 20
18.1
 11
251.2
 21
18.1
  0
LINE
  8
0
 10
251.2
 20
18.1
 11
251.2
 21
31.5
  0
LINE
  8
0
 10
251.2
 20
31.5
 11
201.2
 21
31.5
  0
LINE
  8
0
 10
201.2
 20
31.5
 11
201.2
 21
1.5
  0
LINE
  8
0
 10
201.2
 20
1.5
 11
251.2
 21
1.5
  0
LINE
  8
0
 10
251.2
 20
1.5
 11
251.2
 21
14.9
  0
LINE
  8
0
 10
307.4
 20
14.9
 11
282.4
 21
14.9
  0
LINE
  8
0
 10
282.4
 20
14.9
 11
282.4
 21
18.1
  0
LINE
  8
0
 10
282.4
 20
18.1
 11
307.4
 21
18.1
  0
LINE
  8
0
 10
307.4
 20
18.1
 11
307.4
 21
31.5
  0
LINE
  8
0
 10
307.4
 20
31.5
 11
257.4
 21
31.5
  0
LINE
  8
0
 10
257.4
 20
31.5
 11
257.4
 21
1.5
  0
LINE
  8
0
 10
257.4
 20
1.5
 11
307.4
 21
1.5
  0
LINE
  8
0
 10
307.4
 20
1.5
 11
307.4
 21
14.9
  0
LINE
  8
0
 10
195
 20
-23.1
 11
170
 21
-23.1
  0
LINE
  8
0
 10
170
 20
-23.1
 11
170
 21
-19.9
  0
LINE
  8
0
 10
170
 20
-19.9
 11
195
 21
-19.9
  0
LINE
  8
0
 10
195
 20
-19.9
 11
195
 21
-1.5
  0
LINE
  8
0
 10
195
 20
-1.5
 11
145
 21
-1.5
  0
LINE
  8
0
 10
145
 20
-1.5
 11
145
 21
-6.5
  0
LINE
  8
0
 10
145
 20
-6.5
 11
141.8
 21
-6.5
  0
LINE
  8
0
 10
141.8
 20
-6.5
 11
141.8
 21
-36.5
  0
LINE
  8
0
 10
141.8
 20
-36.5
 11
145
 21
-36.5
  0
LINE
  8
0
 10
145
 20
-36.5
 11
145
 21
-41.5
  0
LINE
  8
0
 10
145
 20
-41.5
 11
195
 21
-41.5
  0
LINE
  8
0
 10
195
 20
-41.5
 11
195
 21
-23.1
  0
LINE
  8
0
 10
251.2
 20
-23.1
 11
226.2
 21
-23.1
  0
LINE
  8
0
 10
226.2
 20
-23.1
 11
226.2
 21
-19.9
  0
LINE
  8
0
 10
226.2
 20
-19.9
 11
251.2
 21
-19.9
  0
LINE
  8
0
 10
251.2
 20
-19.9
 11
251.2
 21
-1.5
  0
LINE
  8
0
 10
251.2
 20
-1.5
 11
201.2
 21
-1.5
  0
LINE
  8
0
 10
201.2
 20
-1.5
 11
201.2
 21
-6.5
  0
LINE
  8
0
 10
201.2
 20
-6.5
 11
198
 21
-6.5
  0
LINE
  8
0
 10
198
 20
-6.5
 11
198
 21
-36.5
  0
LINE
  8
0
 10
198
 20
-36.5
 11
201.2
 21
-36.5
  0
LINE
  8
0
 10
201.2
 20
-36.5
 11
201.2
 21
-41.5
  0
LINE
  8
0
 10
201.2
 20
-41.5
 11
251.2
 21
-41.5
  0
LINE
  8
0
 10
251.2
 20
-41.5
 11
251.2
 21
-23.1
  0
LINE
  8
0
 10
307.4
 20
-23.1
 11
282.4
 21
-23.1
  0
LINE
  8
0
 10
282.4
 20
-23.1
 11
282.4
 21
-19.9
  0
LINE
  8
0
 10
282.4
 20
-19.9
 11
307.4
 21
-19.9
  0
LINE
  8
0
 10
307.4
 20
-19.9
 11
307.4
 21
-1.5
  0
LINE
  8
0
 10
307.4
 20
-1.5
 11
257.4
 21
-1.5
  0
LINE
  8
0
 10
257.4
 20
-1.5
 11
257.4
 21
-6.5
  0
LINE
  8
0
 10
257.4
 20
-6.5
 11
254.2
 21
-6.5
  0
LINE
  8
0
 10
254.2
 20
-6.5
 11
254.2
 21
-36.5
  0
LINE
  8
0
 10
254.2
 20
-36.5
 11
257.4
 21
-36.5
  0
LINE
  8
0
 10
257.4
 20
-36.5
 11
257.4
 21
-41.5
  0
LINE
  8
0
 10
257.4
 20
-41.5
 11
307.4
 21
-41.5
  0
LINE
  8
0
 10
307.4
 20
-41.5
 11
307.4
 21
-23.1
  0
ENDSEC
  0
SECTION
  2
OBJECTS
  0
DICTIONARY
  0
ENDSEC
  0
EOF
